<svg width="37" height="37" viewBox="0 0 37 37" fill="none" xmlns="http://www.w3.org/2000/svg">
<path d="M19.3333 34H2.1C1.80826 34 1.52847 33.8841 1.32218 33.6778C1.11589 33.4715 1 33.1917 1 32.9V2.1C1 1.80826 1.11589 1.52847 1.32218 1.32218C1.52847 1.11589 1.80826 1 2.1 1H32.9C33.1917 1 33.4715 1.11589 33.6778 1.32218C33.8841 1.52847 34 1.80826 34 2.1V19.3333" stroke="black" stroke-width="1.5" stroke-linecap="round" stroke-linejoin="round"/>
<path d="M1 24.8334L13.8333 19.3334L23.9167 23.9167" stroke="black" stroke-width="1.5" stroke-linecap="round" stroke-linejoin="round"/>
<path d="M24.8334 13.8333C23.8609 13.8333 22.9283 13.447 22.2406 12.7594C21.553 12.0718 21.1667 11.1391 21.1667 10.1667C21.1667 9.19421 21.553 8.26157 22.2406 7.57394C22.9283 6.88631 23.8609 6.5 24.8334 6.5C25.8058 6.5 26.7384 6.88631 27.4261 7.57394C28.1137 8.26157 28.5 9.19421 28.5 10.1667C28.5 11.1391 28.1137 12.0718 27.4261 12.7594C26.7384 13.447 25.8058 13.8333 24.8334 13.8333V13.8333Z" stroke="black" stroke-width="1.5" stroke-linecap="round" stroke-linejoin="round"/>
<path d="M30.3333 30.3334V35.8334M24.8333 30.3334H30.3333H24.8333ZM35.8333 30.3334H30.3333H35.8333ZM30.3333 30.3334V24.8334V30.3334Z" stroke="black" stroke-width="1.5" stroke-linecap="round" stroke-linejoin="round"/>
</svg>
