<svg width="20" height="20" viewBox="0 0 20 20" fill="none" xmlns="http://www.w3.org/2000/svg">
<path d="M10.0603 19.3135C10.0422 19.3285 10.0247 19.3429 10.0079 19.3567C9.99078 19.3427 9.97303 19.3281 9.95464 19.313C9.72049 19.1201 9.38375 18.8379 8.97563 18.4821C8.1589 17.77 7.05876 16.7652 5.92376 15.5938C4.78766 14.4212 3.62373 13.0889 2.6749 11.7219C1.72215 10.3493 1.00817 8.97256 0.737236 7.7088C0.178591 5.10298 0.669564 3.30991 1.54617 2.17803C2.42926 1.03777 3.75478 0.5 4.99841 0.5C6.62699 0.5 7.74653 1.39388 8.48244 2.34064C8.84987 2.81334 9.11229 3.28872 9.28278 3.64692C9.36773 3.82538 9.42905 3.97305 9.46859 4.07444C9.48833 4.12509 9.50259 4.16405 9.51159 4.18937L9.52117 4.21683L9.523 4.22227L9.52304 4.2224L9.52311 4.2226L9.52319 4.22285L9.52326 4.22306L9.9952 5.67367L10.4731 4.22498L10.4731 4.22477L10.4732 4.22453L10.4733 4.2243L10.4733 4.22421L10.4752 4.2187L10.4849 4.19117C10.494 4.1658 10.5085 4.12678 10.5285 4.07608C10.5684 3.97458 10.6304 3.82679 10.716 3.64819C10.8879 3.28974 11.1519 2.81403 11.5203 2.34099C12.2586 1.39292 13.3766 0.5 14.9919 0.5C16.3548 0.5 17.6726 1.04286 18.5219 2.17237C19.3693 3.29942 19.8106 5.09227 19.2497 7.70865C18.9783 8.97286 18.2657 10.3498 17.3156 11.7225C16.3695 13.0895 15.2092 14.4218 14.077 15.5944C12.9458 16.7658 11.8495 17.7706 11.0357 18.4827C10.6291 18.8385 10.2935 19.1207 10.0603 19.3135Z" stroke="black"/>
</svg>
