<?xml version="1.0" encoding="utf-8"?>
<!-- Generator: Adobe Illustrator 16.0.0, SVG Export Plug-In . SVG Version: 6.00 Build 0)  -->
<!DOCTYPE svg PUBLIC "-//W3C//DTD SVG 1.1//EN" "http://www.w3.org/Graphics/SVG/1.1/DTD/svg11.dtd">
<svg version="1.1" id="레이어_1" xmlns="http://www.w3.org/2000/svg" xmlns:xlink="http://www.w3.org/1999/xlink" x="0px"
	 y="0px" width="800px" height="61px" viewBox="0 0 800 61" enable-background="new 0 0 800 61" xml:space="preserve">
<line fill="none" stroke="#212121" stroke-miterlimit="10" x1="0" y1="29.5" x2="350" y2="29.5"/>
<g>
	<path fill="#212121" d="M396.839,38.69v2.195h-29.228V38.69h13.21v-6.947h2.628v6.947H396.839z M381.577,29.224
		c-3.563,0.792-6.552,0.9-9.647,0.9h-1.727V15.978h10.727v2.196h-8.1v9.719c2.736-0.036,5.436-0.18,8.459-0.9L381.577,29.224z
		 M394.5,30.124h-11.592V15.941h11.195v2.196h-8.566v9.791h8.963V30.124z"/>
	<path fill="#212121" d="M429.887,29.332v2.196h-29.191v-2.196H429.887z M407.139,42.074h19.581v2.196h-22.21v-9.396h2.629V42.074z
		 M426.504,24.868H404.69V14.034h2.628v8.675h19.186V24.868z"/>
</g>
<line fill="none" stroke="#212121" stroke-miterlimit="10" x1="450" y1="29.5" x2="800" y2="29.5"/>
</svg>
