<?xml version="1.0" encoding="utf-8"?>
<!-- Generator: Adobe Illustrator 16.0.0, SVG Export Plug-In . SVG Version: 6.00 Build 0)  -->
<!DOCTYPE svg PUBLIC "-//W3C//DTD SVG 1.1//EN" "http://www.w3.org/Graphics/SVG/1.1/DTD/svg11.dtd">
<svg version="1.1" id="레이어_1" xmlns="http://www.w3.org/2000/svg" xmlns:xlink="http://www.w3.org/1999/xlink" x="0px"
	 y="0px" width="30px" height="30px" viewBox="0 0 30 30" enable-background="new 0 0 30 30" xml:space="preserve">
<g>
	<defs>
		<circle id="SVGID_1_" cx="15" cy="15" r="15"/>
	</defs>
	<clipPath id="SVGID_2_">
		<use xlink:href="#SVGID_1_"  overflow="visible"/>
	</clipPath>
	<rect x="-1.908" y="-3.261" clip-path="url(#SVGID_2_)" fill="#EBBD0F" width="35.174" height="36.261"/>
	<g clip-path="url(#SVGID_2_)">
		<g>
			<g enable-background="new    ">
				<defs>
					<polygon id="SVGID_3_" enable-background="new    " points="11.087,36.321 -1.93,19.114 13.092,12.001 26.109,29.208 					"/>
				</defs>
				<clipPath id="SVGID_4_">
					<use xlink:href="#SVGID_3_"  overflow="visible"/>
				</clipPath>
				<g clip-path="url(#SVGID_4_)">
					<g>
						<g>
							<g>
								<path fill="#E6E6E6" d="M10.943,13.019L0.162,18.123c-1.224,0.58-1.44,1.853-0.569,3.005L9.574,34.32
									c0.871,1.152,2.381,1.59,3.605,1.01l10.781-5.104c1.218-0.576,1.508-1.866,0.636-3.018l-9.98-13.193
									C13.744,12.863,12.16,12.442,10.943,13.019"/>
							</g>
						</g>
					</g>
				</g>
			</g>
		</g>
	</g>
</g>
<g>
	
		<image overflow="visible" opacity="0.3" width="54" height="54" xlink:href="DF76F339.png"  transform="matrix(1 0 0 1 -9.6328 -14.3516)">
	</image>
	<g>
		<g>
			<g>
				<path fill="#EBBD0F" d="M27.261,6.686L13.587,20.359c-0.263,0.261-0.691,0.263-0.955,0L9.754,17.48
					c-0.264-0.264-0.264-0.689,0-0.953c0.264-0.266,13.486-13.49,13.672-13.675c0.263-0.263,0.69-0.263,0.954,0l2.88,2.879
					C27.523,5.995,27.523,6.423,27.261,6.686z"/>
			</g>
			<g>
				<path fill="#CAA20C" d="M27.261,6.686L13.587,20.359c-0.263,0.261-0.691,0.263-0.955,0l-1.439-1.438L25.821,4.292l1.439,1.44
					C27.523,5.995,27.523,6.423,27.261,6.686z"/>
			</g>
			<path fill="#A9870B" d="M29.316,2.163l-2.21,2.209c-0.195,0.197-0.452,0.295-0.712,0.295c-0.892,0-1.341-1.084-0.709-1.716
				l2.209-2.21c0.394-0.392,1.029-0.392,1.422,0C29.71,1.133,29.71,1.771,29.316,2.163z"/>
			<g>
				<path fill="#645105" d="M29.316,2.163l-2.21,2.209c-0.391,0.391-1.028,0.395-1.421,0l3.631-3.631
					C29.71,1.133,29.71,1.771,29.316,2.163z"/>
			</g>
			<g>
				<path fill="#3A3A3A" d="M28.941,5.004l-1.681,1.681l-3.834-3.833c0.684-0.683,0.677-0.676,1.682-1.682
					c0.529-0.527,1.38-0.527,1.91,0c0.668,0.668,1.241,1.243,1.923,1.924C29.469,3.622,29.469,4.478,28.941,5.004z"/>
			</g>
			<path fill="#1A1A1A" d="M28.941,5.004l-1.681,1.681l-1.918-1.917l2.637-2.635l0.962,0.961
				C29.469,3.622,29.469,4.478,28.941,5.004L28.941,5.004z"/>
			<path fill="#A9870B" d="M9.089,21.979l-1.304,1.304c-0.132,0.134-0.304,0.197-0.477,0.197c-0.599,0-0.901-0.729-0.478-1.153
				l1.305-1.302c0.263-0.264,0.689-0.264,0.954,0C9.352,21.287,9.352,21.716,9.089,21.979L9.089,21.979z"/>
			<g>
				<path fill="#645105" d="M9.089,21.024c0.263,0.263,0.263,0.691,0,0.954l-1.304,1.304c-0.263,0.263-0.691,0.265-0.955,0
					L9.089,21.024z"/>
			</g>
			<g>
				<path fill="#3A3A3A" d="M13.496,20.435l-3.598,2.519c-0.27,0.188-0.634,0.155-0.864-0.074L7.235,21.08
					c-0.231-0.232-0.263-0.597-0.076-0.865l2.519-3.599C9.889,16.828,13.284,20.224,13.496,20.435L13.496,20.435z"/>
			</g>
			<path fill="#1A1A1A" d="M11.587,18.526l1.909,1.908l-3.598,2.519c-0.27,0.188-0.634,0.155-0.864-0.074l-0.899-0.9L11.587,18.526z
				"/>
			<path fill="#A9870B" d="M28.312,9.824l-5.041,4.447c-0.279,0.247-0.704,0.22-0.953-0.06c-0.246-0.279-0.219-0.706,0.061-0.953
				l5.039-4.447c0.293-0.256,0.311-0.706,0.033-0.982c-3.167-3.167-2.089-2.087-4.5-4.499c0-0.005-0.038,0.038,0.954-0.955
				c0.829,0.829,3.532,3.532,4.5,4.5C29.226,7.697,29.189,9.048,28.312,9.824L28.312,9.824z"/>
			<g>
				<path fill="#645105" d="M28.404,6.875c0.821,0.822,0.785,2.173-0.093,2.949l-5.041,4.447c-0.128,0.113-0.287,0.168-0.445,0.168
					c-0.618,0-0.914-0.768-0.447-1.181l5.039-4.447c0.293-0.256,0.311-0.706,0.033-0.982l-2.583-2.583l0.954-0.955
					C26.826,5.296,27.458,5.93,28.404,6.875z"/>
			</g>
		</g>
	</g>
</g>
</svg>
