<?xml version="1.0" encoding="utf-8"?>
<!-- Generator: Adobe Illustrator 16.0.0, SVG Export Plug-In . SVG Version: 6.00 Build 0)  -->
<!DOCTYPE svg PUBLIC "-//W3C//DTD SVG 1.1//EN" "http://www.w3.org/Graphics/SVG/1.1/DTD/svg11.dtd">
<svg version="1.1" id="레이어_1" xmlns="http://www.w3.org/2000/svg" xmlns:xlink="http://www.w3.org/1999/xlink" x="0px"
	 y="0px" width="30px" height="30px" viewBox="0 0 30 30" enable-background="new 0 0 30 30" xml:space="preserve">
<circle fill="#EBBD0F" cx="15" cy="15" r="15"/>
<path fill="#AA8718" d="M11.167,21.766l7.713,7.714C25.269,27.775,30,21.955,30,14.999c0-0.142,0-0.284,0-0.426L23.943,8.99
	L11.167,21.766z"/>
<g>
	<path fill="#FFFFFF" d="M15.379,18.359c0.662,0.662,0.662,1.798,0,2.46l-1.373,1.373c-0.662,0.661-1.798,0.661-2.46,0l-6.009-6.058
		c-0.664-0.662-0.664-1.798,0-2.46l1.372-1.373c0.663-0.662,1.799-0.662,2.461,0L15.379,18.359z"/>
	<path fill="#FFFFFF" d="M20.632,7.901c0.661-0.663,1.797-0.663,2.46,0l1.372,1.372c0.663,0.663,0.663,1.798,0,2.461L14.053,22.097
		c-0.662,0.663-1.797,0.663-2.46,0l-1.372-1.372c-0.662-0.662-0.662-1.798,0-2.461L20.632,7.901z"/>
</g>
<circle fill="#937378" cx="-19.95" cy="5.907" r="3.286"/>
<circle fill="#8E8083" cx="-12.276" cy="5.788" r="3.286"/>
<circle fill="#AAAAAA" cx="-4.394" cy="5.788" r="3.287"/>
<circle fill="#D0D4D7" cx="-27.821" cy="13.785" r="3.286"/>
<circle fill="#DBD0B4" cx="-19.95" cy="13.785" r="3.286"/>
<circle fill="#DDC47C" cx="-12.276" cy="13.785" r="3.286"/>
<circle fill="#E5C04A" cx="-4.394" cy="13.785" r="3.287"/>
<circle fill="#EBBD0F" cx="-27.821" cy="21.563" r="3.286"/>
<circle fill="#D5E867" cx="-19.95" cy="21.563" r="3.286"/>
<circle fill="#89E59D" cx="-12.276" cy="21.563" r="3.286"/>
<circle fill="#A1DFE5" cx="-4.394" cy="21.563" r="3.287"/>
</svg>
