<?xml version="1.0" encoding="utf-8"?>
<!-- Generator: Adobe Illustrator 16.0.0, SVG Export Plug-In . SVG Version: 6.00 Build 0)  -->
<!DOCTYPE svg PUBLIC "-//W3C//DTD SVG 1.1//EN" "http://www.w3.org/Graphics/SVG/1.1/DTD/svg11.dtd">
<svg version="1.1" id="레이어_1" xmlns="http://www.w3.org/2000/svg" xmlns:xlink="http://www.w3.org/1999/xlink" x="0px"
	 y="0px" width="30px" height="30px" viewBox="0 0 30 30" enable-background="new 0 0 30 30" xml:space="preserve">
<g>
	<defs>
		<circle id="SVGID_1_" cx="15" cy="15" r="15"/>
	</defs>
	<clipPath id="SVGID_2_">
		<use xlink:href="#SVGID_1_"  overflow="visible"/>
	</clipPath>
	<circle clip-path="url(#SVGID_2_)" fill="#D0EFFC" cx="14.502" cy="16.053" r="17.104"/>
	<g clip-path="url(#SVGID_2_)">
		<g>
			<g enable-background="new    ">
				<defs>
					<polygon id="SVGID_3_" enable-background="new    " points="9.432,35.04 -3.096,18.479 11.421,11.605 23.949,28.167 					"/>
				</defs>
				<clipPath id="SVGID_4_">
					<use xlink:href="#SVGID_3_"  overflow="visible"/>
				</clipPath>
				<g clip-path="url(#SVGID_4_)">
					<g>
						<g>
							<g>
								<path fill="#FFFFFF" d="M9.308,12.606l-10.291,4.872c-1.174,0.557-1.436,1.896-0.6,3.001L7.918,33.04
									c0.836,1.104,2.453,1.556,3.627,1l10.29-4.873c1.167-0.553,1.436-1.896,0.6-3.001l-9.501-12.561
									C12.098,12.5,10.474,12.053,9.308,12.606"/>
							</g>
						</g>
					</g>
				</g>
			</g>
		</g>
	</g>
	<g clip-path="url(#SVGID_2_)">
		<g>
			<g enable-background="new    ">
				<defs>
					<polygon id="SVGID_5_" enable-background="new    " points="6.545,27.804 0.803,20.214 9.577,16.06 15.319,23.65 					"/>
				</defs>
				<clipPath id="SVGID_6_">
					<use xlink:href="#SVGID_5_"  overflow="visible"/>
				</clipPath>
				<g clip-path="url(#SVGID_6_)">
					<g>
						<g>
							<g>
								<path fill="#EA4626" d="M3.151,19.103c0.026-0.013,0.054-0.025,0.08-0.037C3.205,19.078,3.178,19.09,3.151,19.103
									 M7.236,17.168c-0.847,0.401-1.304,1.202-1.187,2.099c-0.876-0.463-1.882-0.553-2.698-0.249
									c0.043-0.016,0.085-0.03,0.128-0.044c-1.041,0.694-1.145,2.18-0.283,3.318c1.951,2.579,6.509,3.046,7.916,3.13
									c-0.108,0.188-0.176,0.303-0.176,0.303s-6.016-0.069-8.344-3.146c2.328,3.077,8.344,3.146,8.344,3.146
									s2.758-4.224,0.43-7.302C10.438,17.199,8.531,16.555,7.236,17.168"/>
								<path fill="#D63722" d="M3.151,19.103c-1.295,0.613-1.487,2.25-0.56,3.476c2.328,3.077,8.344,3.146,8.344,3.146
									s0.068-0.114,0.176-0.303c-1.407-0.084-5.965-0.551-7.916-3.13c-0.861-1.139-0.758-2.624,0.283-3.318
									c-0.042,0.014-0.085,0.028-0.128,0.044c-0.04,0.015-0.08,0.03-0.12,0.048C3.205,19.078,3.178,19.09,3.151,19.103"/>
							</g>
						</g>
					</g>
				</g>
			</g>
		</g>
	</g>
</g>
<g>
	<g>
		
			<image overflow="visible" opacity="0.3" width="52" height="50" xlink:href="B918AAF9.png"  transform="matrix(1 0 0 1 -7.7705 -13.0112)">
		</image>
		<g>
			<g>
				<path fill="#FFE266" d="M23.45,11.354c-0.313-0.334-0.295-0.858,0.041-1.171l4.389-4.089c0.333-0.313,0.857-0.293,1.17,0.042
					c0.312,0.334,0.293,0.859-0.041,1.171l-4.388,4.089C24.287,11.707,23.762,11.689,23.45,11.354z"/>
				<g>
					<path fill="#8BB6EF" d="M13.868,16c-0.868-0.933-0.816-2.392,0.115-3.262L24.894,2.57c0.932-0.868,2.392-0.816,3.26,0.115
						c0.867,0.932,0.816,2.392-0.115,3.261L17.129,16.114C16.198,16.981,14.737,16.931,13.868,16z"/>
					<path fill="#8388EF" d="M28.153,2.685c-0.827-0.884-2.184-0.975-3.117-0.237c0.418,0.021,0.827,0.198,1.135,0.528l0.163,0.175
						c0.628,0.673,0.591,1.727-0.082,2.354L16.817,14.3c-0.675,0.627-1.729,0.59-2.356-0.083l-0.164-0.175
						c-0.307-0.33-0.455-0.751-0.447-1.168c-0.8,0.877-0.807,2.24,0.018,3.126c0.869,0.931,2.329,0.983,3.261,0.115L28.038,5.946
						C28.97,5.077,29.021,3.617,28.153,2.685z"/>
					<g>
						<path fill="#FFFFFF" d="M23.115,6.677c-0.099-0.004-0.198-0.042-0.271-0.12c-0.156-0.159-0.155-0.413,0.004-0.568
							c0.279-0.274,1.157-1.058,1.301-1.189c0.163-0.15,0.417-0.139,0.567,0.025c0.149,0.163,0.138,0.417-0.025,0.567
							c-0.148,0.136-1.014,0.91-1.279,1.171C23.329,6.642,23.222,6.681,23.115,6.677L23.115,6.677z"/>
					</g>
					<g>
						<path fill="#FFFFFF" d="M25.222,4.75c-0.106-0.004-0.207-0.048-0.283-0.131c-0.147-0.163-0.139-0.417,0.025-0.567l0.166-0.154
							c0.164-0.15,0.418-0.139,0.569,0.024c0.149,0.163,0.137,0.418-0.025,0.568l-0.167,0.153
							C25.424,4.718,25.322,4.754,25.222,4.75z"/>
					</g>
					<g>
						<path fill="#6280CC" d="M17.257,13.341c-0.058-0.002-0.113-0.024-0.157-0.066c-0.096-0.091-0.099-0.245-0.008-0.34
							l0.315-0.334c0.093-0.096,0.245-0.101,0.342-0.009c0.097,0.091,0.099,0.245,0.008,0.341l-0.315,0.333
							C17.392,13.318,17.324,13.343,17.257,13.341L17.257,13.341z"/>
					</g>
					<g>
						<path fill="#6280CC" d="M18.955,13.012c-0.057-0.002-0.112-0.023-0.156-0.065c-0.098-0.092-0.101-0.246-0.009-0.341
							l0.317-0.334c0.09-0.097,0.242-0.101,0.339-0.009c0.099,0.092,0.102,0.244,0.009,0.341l-0.315,0.333
							C19.091,12.99,19.023,13.015,18.955,13.012L18.955,13.012z"/>
					</g>
				</g>
				<g>
					<path fill="#FFE266" d="M10.526,15.8l-1.323,4.33c-0.041,0.133,0.079,0.266,0.218,0.234l4.411-1.018
						c0.105-0.024,0.179-0.126,0.168-0.233l-0.297-2.961l-2.93-0.503C10.665,15.632,10.559,15.696,10.526,15.8z"/>
					<circle fill="#D0844B" cx="11.581" cy="18.131" r="0.593"/>
					<g>
						<path fill="#D0844B" d="M9.335,20.458c-0.063-0.003-0.124-0.027-0.169-0.079c-0.09-0.096-0.085-0.249,0.012-0.341l2.239-2.082
							c0.096-0.094,0.249-0.088,0.34,0.011c0.091,0.098,0.086,0.248-0.012,0.342l-2.238,2.083
							C9.458,20.439,9.397,20.458,9.335,20.458z"/>
					</g>
				</g>
				<path fill="#FFE266" d="M14.478,17.961l-2.524-2.707c-0.331-0.355-0.312-0.911,0.043-1.241c0.354-0.33,0.909-0.311,1.24,0.044
					l2.524,2.708c0.331,0.354,0.312,0.91-0.043,1.242C15.363,18.335,14.808,18.316,14.478,17.961L14.478,17.961z"/>
			</g>
		</g>
	</g>
	<g>
		<ellipse fill="#D0844B" cx="18.988" cy="19.111" rx="0.809" ry="0.809"/>
		<path fill="#D0844B" d="M27.565,16.598c0.021-0.189,0.191-0.323,0.38-0.303c0.188,0.021,0.323,0.193,0.303,0.382
			c-0.023,0.189-0.194,0.322-0.381,0.301C27.678,16.956,27.544,16.785,27.565,16.598z"/>
		<g>
			<path fill="#FFE266" d="M22.853,20.299l-0.183-0.8c-0.01-0.036-0.03-0.063-0.057-0.08l-0.647-0.387
				c-0.092-0.055-0.074-0.208,0.026-0.241l0.72-0.229c0.032-0.01,0.059-0.034,0.071-0.066l0.365-0.736
				c0.05-0.104,0.186-0.088,0.212,0.025l0.184,0.803c0.009,0.032,0.028,0.061,0.056,0.077l0.65,0.387
				c0.088,0.055,0.071,0.208-0.029,0.24l-0.719,0.229c-0.03,0.011-0.056,0.035-0.072,0.065l-0.362,0.739
				C23.017,20.426,22.88,20.414,22.853,20.299L22.853,20.299z"/>
			<path fill="#FFE266" d="M27.176,14.034l-0.256-1.079c-0.012-0.047-0.039-0.086-0.076-0.108l-0.892-0.523
				c-0.125-0.074-0.102-0.281,0.038-0.324l0.986-0.306c0.043-0.013,0.078-0.045,0.098-0.088l0.496-0.993
				c0.071-0.14,0.26-0.118,0.295,0.035l0.254,1.079c0.014,0.046,0.039,0.085,0.079,0.107l0.89,0.524
				c0.125,0.074,0.101,0.28-0.037,0.324l-0.986,0.306c-0.043,0.013-0.078,0.044-0.1,0.087l-0.496,0.993
				C27.399,14.208,27.212,14.186,27.176,14.034z"/>
		</g>
	</g>
</g>
</svg>
