<?xml version="1.0" encoding="utf-8"?>
<!-- Generator: Adobe Illustrator 16.0.0, SVG Export Plug-In . SVG Version: 6.00 Build 0)  -->
<!DOCTYPE svg PUBLIC "-//W3C//DTD SVG 1.1//EN" "http://www.w3.org/Graphics/SVG/1.1/DTD/svg11.dtd">
<svg version="1.1" id="레이어_1" xmlns="http://www.w3.org/2000/svg" xmlns:xlink="http://www.w3.org/1999/xlink" x="0px"
	 y="0px" width="30px" height="29.995px" viewBox="0 0 30 29.995" enable-background="new 0 0 30 29.995" xml:space="preserve">
<g>
	<defs>
		<circle id="SVGID_1_" cx="15" cy="15" r="15"/>
	</defs>
	<clipPath id="SVGID_2_">
		<use xlink:href="#SVGID_1_"  overflow="visible"/>
	</clipPath>
	<rect x="-0.816" y="-2.676" clip-path="url(#SVGID_2_)" fill="#D0D4D7" width="33" height="34"/>
	<g clip-path="url(#SVGID_2_)">
		<g>
			<g enable-background="new    ">
				<defs>
					<polygon id="SVGID_3_" enable-background="new    " points="11.512,35.732 -0.66,19.644 13.174,13.093 25.346,29.182 					"/>
				</defs>
				<clipPath id="SVGID_4_">
					<use xlink:href="#SVGID_3_"  overflow="visible"/>
				</clipPath>
				<g clip-path="url(#SVGID_4_)">
					<g>
						<g>
							<g>
								<path fill="#FFFFFF" d="M11.117,14.067L1.396,18.67c-1.139,0.539-1.399,1.842-0.584,2.92l9.227,12.196
									c0.81,1.071,2.39,1.512,3.529,0.973l9.721-4.603c1.139-0.54,1.395-1.85,0.584-2.92l-9.227-12.197
									C13.831,13.961,12.256,13.527,11.117,14.067"/>
							</g>
						</g>
					</g>
				</g>
			</g>
		</g>
	</g>
</g>
<g>
	
		<image overflow="visible" opacity="0.3" width="51" height="52" xlink:href="3470862A.png"  transform="matrix(1 0 0 1 -7.3584 -13.6758)">
	</image>
	<g>
		<g>
			<g>
				
					<rect x="13.765" y="9.16" transform="matrix(-0.7257 -0.688 0.688 -0.7257 16.1977 37.3918)" fill="#848484" width="3.574" height="12.615"/>
			</g>
			<path fill="#E2E2E2" d="M12.509,21.278l-2.594-2.459l-0.837,3.154c-0.053,0.197,0.133,0.372,0.326,0.311L12.509,21.278z"/>
			<path fill="#E2E2E2" d="M28.304,4.159L26.161,2.13c-0.124-0.119-0.321-0.113-0.44,0.012l-7.126,7.519l2.594,2.46l7.127-7.52
				C28.434,4.475,28.429,4.278,28.304,4.159z"/>
			<g>
				<path fill="#848484" d="M28.196,4.058L26.27,2.231l1.204-1.271c0.323-0.342,0.863-0.356,1.205-0.032l0.689,0.653
					c0.341,0.324,0.355,0.864,0.032,1.206L28.196,4.058z"/>
			</g>
			<path fill="#494949" d="M11.635,20.45l8.677-9.158l0.872,0.828l-8.677,9.156L11.635,20.45z"/>
			<path fill="#B3B3B3" d="M28.304,4.159L27.43,3.332c0.125,0.119,0.13,0.317,0.012,0.442l-7.126,7.519l0.873,0.828l7.127-7.52
				C28.434,4.475,28.429,4.278,28.304,4.159z"/>
			<path fill="#666666" d="M29.368,1.582l-0.689-0.653c-0.032-0.03-0.064-0.055-0.1-0.08c0.257,0.327,0.242,0.8-0.053,1.111
				l-1.204,1.27l0.874,0.828l1.204-1.27C29.724,2.446,29.709,1.906,29.368,1.582z"/>
			<g>
				<path fill="#666666" d="M17.606,9.038c-0.081,0.002-0.164-0.027-0.229-0.088c-0.129-0.122-0.134-0.324-0.013-0.452l5.408-5.706
					c0.121-0.128,0.324-0.134,0.453-0.012c0.128,0.122,0.134,0.324,0.012,0.453l-5.407,5.705C17.77,9.002,17.689,9.036,17.606,9.038
					L17.606,9.038z"/>
			</g>
			<path fill="#5A5A5A" d="M27.356,5.988l-3.476-3.293c-0.167-0.158-0.431-0.151-0.588,0.016l-0.859,0.907l3.777,3.58
				c0.17,0.163,0.44,0.155,0.604-0.016l0.559-0.589C27.534,6.42,27.527,6.15,27.356,5.988z"/>
			<g>
				<path fill="#848484" d="M27.356,5.988l-3.698-3.505c-0.173-0.163-0.444-0.156-0.605,0.016l-0.852,0.898l4.01,3.8
					c0.17,0.163,0.44,0.155,0.604-0.016l0.559-0.589C27.534,6.42,27.527,6.15,27.356,5.988z"/>
			</g>
			<path fill="#494949" d="M27.356,5.988l-0.873-0.827c0.172,0.162,0.179,0.432,0.017,0.603l-0.559,0.589
				c-0.163,0.171-0.433,0.179-0.604,0.017l0.874,0.827c0.17,0.163,0.44,0.155,0.604-0.016l0.559-0.589
				C27.534,6.42,27.527,6.15,27.356,5.988z"/>
			<path fill="#B3B3B3" d="M11.637,20.45l-2.358,0.765l-0.201,0.759c-0.053,0.197,0.133,0.372,0.326,0.311l3.106-1.006L11.637,20.45
				z"/>
		</g>
	</g>
</g>
</svg>
