<?xml version="1.0" encoding="utf-8"?>
<!-- Generator: Adobe Illustrator 16.0.0, SVG Export Plug-In . SVG Version: 6.00 Build 0)  -->
<!DOCTYPE svg PUBLIC "-//W3C//DTD SVG 1.1//EN" "http://www.w3.org/Graphics/SVG/1.1/DTD/svg11.dtd">
<svg version="1.1" id="레이어_1" xmlns="http://www.w3.org/2000/svg" xmlns:xlink="http://www.w3.org/1999/xlink" x="0px"
	 y="0px" width="30px" height="30px" viewBox="0 0 30 30" enable-background="new 0 0 30 30" xml:space="preserve">
<circle fill="#212121" cx="15.025" cy="15" r="15"/>
<path d="M8.731,21.766l8.092,8.092c6.813-0.805,12.208-6.15,13.06-12.965l-8.139-8.139L8.731,21.766z"/>
<path fill="#4F4F4F" d="M22.123,18.313c0.662,0.662,0.662,1.797,0,2.461l-1.325,1.324c-0.663,0.662-1.798,0.662-2.461,0
	l-10.41-10.41c-0.663-0.662-0.663-1.798,0-2.46l1.372-1.372c0.663-0.663,1.798-0.663,2.46,0L22.123,18.313z"/>
<path fill="#474747" d="M16.634,12.776l-3.833,3.833l5.536,5.488c0.663,0.662,1.798,0.662,2.461,0l1.372-1.371
	c0.663-0.664,0.663-1.799,0-2.461L16.634,12.776z"/>
<path fill="#585858" d="M18.337,7.902c0.663-0.663,1.798-0.663,2.461,0l1.372,1.372c0.663,0.663,0.663,1.798,0,2.46L11.712,22.098
	c-0.663,0.662-1.798,0.662-2.46,0l-1.325-1.324c-0.663-0.664-0.663-1.799,0-2.461L18.337,7.902z"/>
</svg>
