<?xml version="1.0" encoding="utf-8"?>
<!-- Generator: Adobe Illustrator 16.0.0, SVG Export Plug-In . SVG Version: 6.00 Build 0)  -->
<!DOCTYPE svg PUBLIC "-//W3C//DTD SVG 1.1//EN" "http://www.w3.org/Graphics/SVG/1.1/DTD/svg11.dtd">
<svg version="1.1" id="레이어_1" xmlns="http://www.w3.org/2000/svg" xmlns:xlink="http://www.w3.org/1999/xlink" x="0px"
	 y="0px" width="30px" height="30px" viewBox="0 0 30 30" enable-background="new 0 0 30 30" xml:space="preserve">
<g opacity="0.4">
	<circle fill="#CCCCCC" cx="15.003" cy="15" r="14.788"/>
</g>
<g>
	<g>
		<g>
			<g>
				<g>
					<g>
						<path fill="none" d="M15.003,8.044c-0.003,0.021,0.401,0,0.979,0.085c0.586,0.045,1.329,0.284,2.029,0.614
							c0.69,0.344,1.357,0.779,1.761,1.211c0.235,0.18,0.36,0.4,0.492,0.512c0.126,0.118,0.174,0.206,0.174,0.206l11.721-9.358
							c0,0-0.752-0.979-2.081-2.256c-1.308-1.299-3.33-2.751-5.55-3.823c-2.219-1.074-4.632-1.749-6.466-1.959
							c-0.913-0.16-1.68-0.162-2.216-0.196c-0.536-0.021-0.842-0.033-0.842-0.033V8.044z"/>
					</g>
					<path fill-rule="evenodd" clip-rule="evenodd" fill="#231815" d="M24.239,3.214l-0.926,1.18
						c0.047-0.056,1.675,1.497,1.641,1.528l1.108-1.011C26.101,4.875,24.29,3.154,24.239,3.214z"/>
					<path fill-rule="evenodd" clip-rule="evenodd" fill="#231815" d="M20.36,1.018l-0.537,1.4c0.024-0.059,2.047,0.922,2.018,0.974
						l0.763-1.292C22.636,2.043,20.387,0.954,20.36,1.018z"/>
					<path fill-rule="evenodd" clip-rule="evenodd" fill="#231815" d="M16.021,0.065l-0.101,1.497
						c0.005-0.06,2.23,0.272,2.216,0.334l0.348-1.459C18.498,0.369,16.025,0,16.021,0.065z"/>
				</g>
			</g>
			<g>
				<g>
					<g>
						<path fill="none" d="M20.438,10.672c0,0,0.058,0.079,0.158,0.218c0.116,0.127,0.247,0.334,0.391,0.589
							c0.294,0.501,0.643,1.205,0.788,1.969c0.158,0.755,0.207,1.555,0.149,2.144c-0.014,0.296-0.086,0.529-0.094,0.7
							c-0.008,0.173-0.065,0.259-0.056,0.261l14.625,3.324c0,0,0.295-1.203,0.471-3.039c0.169-1.833,0.072-4.302-0.471-6.714
							c-0.512-2.422-1.559-4.695-2.502-6.276c-0.465-0.8-0.896-1.436-1.23-1.859c-0.324-0.43-0.509-0.675-0.509-0.675L20.438,10.672
							z"/>
					</g>
					<path fill-rule="evenodd" clip-rule="evenodd" fill="#231815" d="M29.982,14.873l-1.5,0.012c0,0,0.011,0.141-0.007,0.351
						c-0.011,0.21-0.024,0.491-0.039,0.771c-0.003,0.282-0.041,0.561-0.079,0.768c-0.031,0.208-0.053,0.347-0.053,0.347l1.481,0.234
						c0,0,0.023-0.154,0.059-0.386c0.041-0.23,0.083-0.539,0.088-0.852c0.016-0.312,0.031-0.624,0.043-0.857
						C29.993,15.029,29.982,14.873,29.982,14.873z"/>
					<path fill-rule="evenodd" clip-rule="evenodd" fill="#231815" d="M29.286,10.467l-1.43,0.454c0,0,0.046,0.132,0.094,0.337
						c0.053,0.204,0.123,0.476,0.192,0.748c0.083,0.269,0.11,0.55,0.145,0.757c0.031,0.208,0.053,0.347,0.053,0.347l1.485-0.209
						c0,0-0.023-0.154-0.059-0.386c-0.038-0.23-0.071-0.542-0.161-0.842c-0.078-0.302-0.155-0.604-0.214-0.831
						C29.337,10.614,29.286,10.467,29.286,10.467z"/>
					<path fill-rule="evenodd" clip-rule="evenodd" fill="#231815" d="M27.322,6.478l-1.233,0.854c0,0,0.092,0.107,0.195,0.291
						c0.109,0.18,0.255,0.42,0.4,0.66c0.156,0.234,0.275,0.489,0.364,0.68c0.091,0.189,0.152,0.316,0.152,0.316l1.357-0.638
						c0,0-0.067-0.141-0.17-0.352c-0.1-0.212-0.232-0.494-0.404-0.755c-0.162-0.267-0.324-0.534-0.445-0.733
						C27.423,6.598,27.322,6.478,27.322,6.478z"/>
				</g>
			</g>
			<g>
				<g>
					<g>
						<path fill="none" d="M21.774,16.553c-0.025-0.008-0.052,0.389-0.284,0.923c-0.208,0.537-0.541,1.253-1.053,1.853
							c-0.491,0.614-1.102,1.116-1.576,1.458c-0.261,0.135-0.455,0.285-0.607,0.36c-0.155,0.07-0.243,0.11-0.243,0.11l6.516,13.51
							c0,0,0.276-0.136,0.762-0.373c0.478-0.248,1.132-0.657,1.916-1.144c1.526-1.035,3.423-2.632,4.953-4.563
							c1.566-1.904,2.691-4.135,3.345-5.86c0.333-0.865,0.568-1.6,0.688-2.127c0.133-0.523,0.209-0.823,0.209-0.823L21.774,16.553z"
							/>
					</g>
					<path fill-rule="evenodd" clip-rule="evenodd" fill="#231815" d="M24.443,26.633l-0.946-1.164c0,0-0.449,0.337-0.899,0.673
						c-0.479,0.294-0.956,0.588-0.956,0.588l0.739,1.305c0,0,0.531-0.327,1.063-0.654C23.943,27.007,24.443,26.633,24.443,26.633z"
						/>
					<path fill-rule="evenodd" clip-rule="evenodd" fill="#231815" d="M27.452,23.341l-1.245-0.836c0,0-0.336,0.45-0.67,0.901
						c-0.157,0.234-0.369,0.423-0.504,0.585c-0.142,0.155-0.236,0.26-0.236,0.26l1.09,1.03c0,0,0.105-0.115,0.263-0.289
						c0.15-0.179,0.383-0.391,0.56-0.649C27.082,23.843,27.452,23.341,27.452,23.341z"/>
					<path fill-rule="evenodd" clip-rule="evenodd" fill="#231815" d="M29.351,19.319l-1.437-0.432c0,0-0.03,0.138-0.109,0.333
						c-0.072,0.198-0.169,0.461-0.266,0.725c-0.085,0.269-0.213,0.519-0.306,0.708c-0.091,0.189-0.152,0.315-0.152,0.315
						l1.345,0.666c0,0,0.067-0.141,0.169-0.352c0.103-0.211,0.243-0.489,0.34-0.787c0.107-0.293,0.215-0.586,0.295-0.806
						C29.315,19.472,29.35,19.319,29.351,19.319z"/>
				</g>
			</g>
			<g>
				<g>
					<g>
						<path fill="none" d="M18.011,21.257c0,0-0.087,0.044-0.238,0.121c-0.152,0.075-0.39,0.13-0.655,0.248
							c-0.56,0.155-1.316,0.317-2.114,0.33c-0.799-0.013-1.556-0.175-2.115-0.33c-0.266-0.118-0.503-0.173-0.656-0.249
							c-0.151-0.076-0.238-0.12-0.238-0.12L5.479,34.766c0,0,0.279,0.132,0.767,0.363c0.49,0.223,1.221,0.478,2.093,0.789
							c1.766,0.55,4.21,1.035,6.665,1.036c2.455-0.001,4.899-0.486,6.665-1.036c0.871-0.312,1.603-0.565,2.093-0.789
							c0.487-0.23,0.767-0.362,0.767-0.362L18.011,21.257z"/>
					</g>
					<path fill-rule="evenodd" clip-rule="evenodd" fill="#231815" d="M11.794,29.633l0.32-1.466c0,0-0.543-0.139-1.087-0.278
						c-0.528-0.191-1.055-0.383-1.055-0.383l-0.56,1.391c0,0,0.586,0.213,1.173,0.426C11.189,29.478,11.794,29.633,11.794,29.633z"
						/>
					<path fill-rule="evenodd" clip-rule="evenodd" fill="#231815" d="M16.243,29.924l-0.123-1.495c0,0-0.561,0.028-1.123,0.057
						c-0.561-0.028-1.123-0.058-1.123-0.058l-0.124,1.495c0,0,0.623,0.031,1.246,0.063C15.62,29.954,16.243,29.924,16.243,29.924z"
						/>
					<path fill-rule="evenodd" clip-rule="evenodd" fill="#231815" d="M20.569,28.906l-0.558-1.393c0,0-0.527,0.19-1.056,0.381
						c-0.543,0.139-1.087,0.278-1.087,0.278l0.317,1.467c0,0,0.604-0.156,1.209-0.312C19.982,29.117,20.569,28.906,20.569,28.906z"
						/>
				</g>
			</g>
			<g>
				<g>
					<g>
						<path fill="none" d="M11.995,21.257c0,0-0.088-0.04-0.243-0.11c-0.153-0.075-0.347-0.226-0.607-0.36
							c-0.475-0.342-1.085-0.844-1.576-1.458c-0.512-0.601-0.844-1.315-1.053-1.853c-0.232-0.534-0.258-0.931-0.284-0.923
							l-14.625,3.324c0,0,0.076,0.299,0.209,0.822c0.12,0.528,0.356,1.262,0.688,2.127c0.653,1.727,1.779,3.956,3.344,5.86
							c1.531,1.931,3.428,3.527,4.954,4.563c0.785,0.486,1.438,0.896,1.917,1.143c0.484,0.237,0.761,0.373,0.761,0.373
							L11.995,21.257z"/>
					</g>
					<path fill-rule="evenodd" clip-rule="evenodd" fill="#231815" d="M1.568,21.611l1.346-0.663c0,0-0.061-0.127-0.152-0.316
						c-0.095-0.188-0.218-0.44-0.304-0.708c-0.097-0.264-0.193-0.527-0.266-0.725c-0.08-0.195-0.106-0.334-0.106-0.334l-1.437,0.43
						c0,0,0.031,0.153,0.118,0.371c0.08,0.22,0.188,0.513,0.294,0.806c0.097,0.298,0.233,0.578,0.338,0.788
						C1.501,21.471,1.568,21.611,1.568,21.611z"/>
					<path fill-rule="evenodd" clip-rule="evenodd" fill="#231815" d="M4.111,25.272l1.091-1.029c0,0-0.094-0.104-0.236-0.26
						c-0.136-0.161-0.346-0.351-0.503-0.585c-0.333-0.452-0.669-0.902-0.669-0.902l-1.246,0.835c0,0,0.37,0.503,0.743,1.003
						c0.176,0.259,0.407,0.472,0.558,0.65C4.006,25.157,4.111,25.272,4.111,25.272z"/>
					<path fill-rule="evenodd" clip-rule="evenodd" fill="#231815" d="M7.602,28.021l0.742-1.304c0,0-0.484-0.285-0.955-0.59
						c-0.45-0.337-0.9-0.673-0.9-0.673l-0.948,1.162c0,0,0.5,0.374,1,0.748C7.063,27.706,7.602,28.021,7.602,28.021z"/>
				</g>
			</g>
			<g>
				<g>
					<g>
						<path fill="none" d="M8.231,16.553c0.009-0.002-0.047-0.088-0.056-0.261c-0.008-0.171-0.081-0.405-0.093-0.7
							c-0.058-0.59-0.009-1.39,0.149-2.144c0.145-0.764,0.494-1.467,0.788-1.969c0.144-0.255,0.273-0.461,0.391-0.589
							c0.101-0.138,0.158-0.217,0.158-0.217L-2.152,1.313c0,0-0.185,0.245-0.509,0.675c-0.334,0.423-0.765,1.059-1.23,1.858
							c-0.943,1.581-1.99,3.854-2.502,6.276c-0.542,2.413-0.639,4.881-0.471,6.714c0.176,1.836,0.47,3.039,0.47,3.04L8.231,16.553z"
							/>
					</g>
					<path fill-rule="evenodd" clip-rule="evenodd" fill="#231815" d="M1.458,8.619l1.356,0.64c0,0,0.061-0.126,0.152-0.316
						c0.087-0.192,0.21-0.444,0.366-0.679c0.146-0.24,0.292-0.48,0.4-0.66c0.103-0.185,0.197-0.29,0.197-0.29L2.699,6.458
						c0,0-0.103,0.118-0.219,0.322c-0.122,0.2-0.284,0.466-0.446,0.733C1.863,7.774,1.725,8.054,1.627,8.268
						C1.526,8.478,1.458,8.619,1.458,8.619z"/>
					<path fill-rule="evenodd" clip-rule="evenodd" fill="#231815" d="M0.182,12.89l1.485,0.21c0,0,0.021-0.139,0.053-0.347
						c0.033-0.208,0.062-0.488,0.145-0.757c0.07-0.272,0.14-0.543,0.192-0.748c0.048-0.205,0.095-0.337,0.095-0.337l-1.43-0.454
						c0,0-0.052,0.147-0.106,0.375c-0.058,0.227-0.136,0.529-0.213,0.831c-0.09,0.3-0.125,0.611-0.162,0.842
						C0.206,12.736,0.182,12.89,0.182,12.89z"/>
					<path fill-rule="evenodd" clip-rule="evenodd" fill="#231815" d="M0.215,17.331L1.697,17.1c0,0-0.021-0.139-0.053-0.347
						c-0.04-0.208-0.073-0.486-0.077-0.768c-0.014-0.281-0.028-0.561-0.039-0.772c-0.018-0.21-0.004-0.351-0.004-0.351l-1.5-0.015
						c0,0-0.014,0.156,0.004,0.389c0.012,0.234,0.027,0.545,0.043,0.856c0.006,0.313,0.042,0.622,0.085,0.853
						C0.192,17.177,0.215,17.331,0.215,17.331z"/>
				</g>
			</g>
			<g>
				<g>
					<g>
						<path fill="none" d="M9.568,10.672c0,0,0.047-0.088,0.174-0.206c0.131-0.112,0.256-0.333,0.492-0.512
							c0.403-0.433,1.069-0.868,1.761-1.211c0.7-0.33,1.442-0.569,2.029-0.614c0.578-0.085,0.982-0.063,0.979-0.085V-6.954
							c0,0-0.306,0.012-0.842,0.033c-0.536,0.035-1.303,0.036-2.216,0.196c-1.833,0.21-4.247,0.884-6.465,1.958
							c-2.22,1.072-4.243,2.524-5.55,3.823C-1.4,0.334-2.152,1.313-2.152,1.313L9.568,10.672z"/>
					</g>
					<path fill-rule="evenodd" clip-rule="evenodd" fill="#231815" d="M11.547,0.431l0.345,1.459
						c-0.014-0.065,2.212-0.387,2.217-0.33l-0.098-1.497C14.006,0.001,11.532,0.359,11.547,0.431z"/>
					<path fill-rule="evenodd" clip-rule="evenodd" fill="#231815" d="M7.411,2.095l0.762,1.292
						c-0.029-0.053,1.995-1.03,2.019-0.973L9.656,1.014C9.63,0.951,7.379,2.037,7.411,2.095z"/>
					<path fill-rule="evenodd" clip-rule="evenodd" fill="#231815" d="M3.96,4.893l1.106,1.013C5.032,5.874,6.664,4.324,6.711,4.38
						L5.787,3.199C5.735,3.138,3.922,4.856,3.96,4.893z"/>
				</g>
			</g>
		</g>
	</g>
</g>
</svg>
