<?xml version="1.0" encoding="utf-8"?>
<!-- Generator: Adobe Illustrator 16.0.0, SVG Export Plug-In . SVG Version: 6.00 Build 0)  -->
<!DOCTYPE svg PUBLIC "-//W3C//DTD SVG 1.1//EN" "http://www.w3.org/Graphics/SVG/1.1/DTD/svg11.dtd">
<svg version="1.1" id="레이어_1" xmlns="http://www.w3.org/2000/svg" xmlns:xlink="http://www.w3.org/1999/xlink" x="0px"
	 y="0px" width="512px" height="363px" viewBox="0 60.5 512 363" enable-background="new 0 60.5 512 363" xml:space="preserve">
<g id="flat">
	<path fill="#AD6327" d="M430.215,268.129l60.889,34.793l17.256,48.833c0.938,5.645-2.879,10.979-8.523,11.915
		c-0.558,0.093-1.121,0.14-1.688,0.14c-3.258,0-6.326-1.533-8.281-4.141l-33.558-39.35l-46.779-23.974L430.215,268.129z"/>
	<path fill="#D3843D" d="M67.843,235.249l5.741-47.318l-34.793-24.181c-17.919,0-37.49-10.003-34.446-29.749
		c2.416-13.175,14.007-22.67,27.4-22.442h111.426v139.173c0,11.395,6.001,26.095,17.397,26.095c10.873,0,26.095,0,26.095-17.396
		v-26.095l191.363-8.699l3.478,17.397l48.712,26.095L404.12,372.508l8.698,17.397c3.442,10.448-2.236,21.71-12.685,25.152
		c-1.527,0.503-3.11,0.819-4.712,0.942H125.774c-16.179,0-28.008-20.354-8.698-34.794l26.095-17.396l-34.793-17.396
		c-24.49-14.09-40.683-39.123-43.491-67.238L67.843,235.249z"/>
	<path fill="#7B60F1" d="M282.344,276.827l-71.161-72.918l18.971-22.764c12.917-12.917,25.225-26.095,43.492-26.095
		c15.975,1.042,31.204,7.135,43.491,17.396l30.68,26.295L282.344,276.827z"/>
	<path fill="#AD6327" d="M143.171,68.067v69.586c19.216,0,34.793-15.578,34.793-34.793
		C177.964,83.645,162.386,68.067,143.171,68.067z"/>
	<path fill="#301A12" d="M90.981,137.654h17.396v17.397H90.981V137.654z"/>
	<path fill="#F9BB4B" d="M351.931,224.637h17.396v69.587h-17.396V224.637z"/>
	<path fill="#F9BB4B" d="M195.361,234.936h17.396v67.482h-17.396V234.936z"/>
	<path fill="#AD6327" d="M308.439,363.81h86.983c4.803,0,8.698,3.895,8.698,8.698l0,0c0,4.804-3.896,8.698-8.698,8.698h-86.983
		c-4.805,0-8.698-3.895-8.698-8.698l0,0C299.74,367.704,303.634,363.81,308.439,363.81z"/>
	<path fill="#AD6327" d="M149.954,353.81l26.444-5.283c4.712-0.941,9.296,2.115,10.238,6.827l0,0
		c0.941,4.714-2.116,9.297-6.829,10.238l-26.444,5.283c-4.712,0.941-9.296-2.115-10.238-6.827l0,0
		C142.185,359.336,145.242,354.75,149.954,353.81z"/>
	<g>
		<circle fill="#FFDC7C" cx="204.059" cy="311.62" r="17.396"/>
		<circle fill="#FFDC7C" cx="360.629" cy="294.224" r="17.397"/>
		<path fill="#FFDC7C" d="M282.344,259.431l-71.161-55.521l-24.521,29.426l95.682,78.286l95.682-86.984l-30.209-25.895
			L282.344,259.431z"/>
		<path fill="#FFDC7C" d="M143.171,191.322v40.273l-78.285,47.579c-0.784-6.558-0.784-13.187,0-19.744l2.957-24.182L143.171,191.322
			z"/>
	</g>
</g>
</svg>
