<?xml version="1.0" encoding="utf-8"?>
<!-- Generator: Adobe Illustrator 16.0.0, SVG Export Plug-In . SVG Version: 6.00 Build 0)  -->
<!DOCTYPE svg PUBLIC "-//W3C//DTD SVG 1.1//EN" "http://www.w3.org/Graphics/SVG/1.1/DTD/svg11.dtd">
<svg version="1.1" id="레이어_1" xmlns="http://www.w3.org/2000/svg" xmlns:xlink="http://www.w3.org/1999/xlink" x="0px"
	 y="0px" width="512px" height="512px" viewBox="0 0 512 512" enable-background="new 0 0 512 512" xml:space="preserve">
<g>
	<defs>
		<circle id="SVGID_1_" cx="256" cy="256.25" r="255"/>
	</defs>
	<clipPath id="SVGID_2_">
		<use xlink:href="#SVGID_1_"  overflow="visible"/>
	</clipPath>
	<circle clip-path="url(#SVGID_2_)" fill="#97DFFC" cx="257.737" cy="256.25" r="255"/>
	<g id="flat" clip-path="url(#SVGID_2_)">
		<path fill="#AD6327" d="M300.568,153.856l22.077-22.077l-40.567-32.455h-48.682l-40.568,32.455l22.076,22.077l42.833,10.377
			L300.568,153.856z"/>
		<path fill="#F9BB4B" d="M366.458,139.893l21.097-16.228c7.433-5.686,10.647-15.331,8.112-24.34l-16.227-40.568
			c-1.688-7.609-8.439-16.227-16.229-16.227c-6.693,0-13.606,10.11-16.228,16.227l-16.227,40.568v24.34L366.458,139.893z"/>
		<path fill="#F9BB4B" d="M149.014,139.893l-21.096-16.228c-7.436-5.686-10.649-15.331-8.114-24.34l16.228-40.568
			c1.688-7.609,8.438-16.227,16.227-16.227c6.653,0,13.566,10.11,16.227,16.227l16.228,40.568v24.34L149.014,139.893z"/>
		<path fill="#D3843D" d="M386.823,156.866l-39.839-33.201h-16.227l-30.19,30.191c-25.531-18.658-60.203-18.639-85.712,0.048
			l0.056-0.065l-30.197-30.174h-16.228l-39.837,33.201l-0.73,47.935l14.604,57.322l15.651,20.86l26.734,60.146l-0.194-0.334v170.321
			h146.044V342.731l26.556-59.732l15.637-20.876l14.602-65.436L386.823,156.866z"/>
		<path fill="#F9BB4B" d="M363.212,285.938l-32.454-16.227v-37.866l-32.453-27.043c-22.72-21.637-58.419-21.637-81.137,0
			l-32.454,27.043v37.866l-32.455,16.227c-5.758,3.251-8.968,9.668-8.113,16.227v8.113c0,8.964,7.265,16.228,16.227,16.228
			c10.744,0.195,20.361,6.715,24.52,16.625c9.979,22.206,40.933,40.169,72.844,40.169c32.154,0,63.342-18.237,73.07-40.688
			c3.973-9.637,13.31-15.973,23.732-16.105h0.463c8.962,0.055,16.27-7.168,16.323-16.13c0-0.031,0.001-0.064,0.001-0.098v-8.113
			C372.181,295.605,368.97,289.188,363.212,285.938z"/>
		<path fill="#301A12" d="M330.758,294.049c-2.152,0-4.215,0.858-5.736,2.379l-30.077,30.077h-20.982
			c-4.48,0-8.113-3.633-8.113-8.112v-30.541l13.128-26.255h7.157c2.239,0,4.057,1.814,4.057,4.057c0,2.239-1.817,4.058-4.057,4.058
			h-4.057v16.227h4.057c11.202,0,20.282-9.081,20.282-20.284c0-11.204-9.08-20.285-20.282-20.285h-12.172
			c-3.088-0.016-5.921,1.723-7.302,4.486l-8.924,17.938l-8.926-17.938c-1.381-2.763-4.213-4.502-7.302-4.486h-12.17
			c-11.204,0-20.284,9.081-20.284,20.285c0,11.203,9.081,20.284,20.284,20.284h4.056v-16.227h-4.056
			c-2.242,0-4.057-1.818-4.057-4.058c0-2.242,1.815-4.057,4.057-4.057h7.155l13.128,26.255v30.541c0,4.479-3.633,8.112-8.114,8.112
			h-20.983l-30.076-30.077c-1.521-1.521-3.585-2.379-5.736-2.379h-16.228v16.229h12.869l30.076,30.078
			c1.522,1.521,3.585,2.376,5.737,2.376h24.341c6.006-0.021,11.791-2.277,16.228-6.329c4.436,4.052,10.218,6.308,16.226,6.329
			h24.343c2.15,0,4.212-0.854,5.735-2.376l30.076-30.078h12.868v-16.229H330.758z"/>
		<path fill="#195C85" d="M379.441,156.119h-81.136v32.454c-22.72-21.635-58.419-21.635-81.137,0v-32.454h-81.136
			c-22.405,0-40.568,18.163-40.568,40.568v33.2c0,22.962,27.366,40.236,48.682,31.709l73.022-24.341v-16.228
			c22.717-21.637,58.417-21.637,81.137,0v16.228l73.021,24.341c21.314,8.526,48.682-8.748,48.682-31.709v-33.2
			C420.008,174.282,401.845,156.119,379.441,156.119z"/>
		<g>
			<path fill="#32B1CC" d="M114.037,223.396l40.561-40.562l11.473,11.474l-40.563,40.561L114.037,223.396z"/>
			<path fill="#32B1CC" d="M154.596,223.406l40.561-40.563l11.473,11.473l-40.561,40.561L154.596,223.406z"/>
			<path fill="#32B1CC" d="M316.852,215.308l40.561-40.561l11.475,11.472l-40.563,40.562L316.852,215.308z"/>
			<path fill="#32B1CC" d="M349.306,223.421l40.562-40.561l11.474,11.472l-40.563,40.563L349.306,223.421z"/>
		</g>
	</g>
</g>
</svg>
