<?xml version="1.0" encoding="utf-8"?>
<!-- Generator: Adobe Illustrator 16.0.0, SVG Export Plug-In . SVG Version: 6.00 Build 0)  -->
<!DOCTYPE svg PUBLIC "-//W3C//DTD SVG 1.1//EN" "http://www.w3.org/Graphics/SVG/1.1/DTD/svg11.dtd">
<svg version="1.1" id="레이어_1" xmlns="http://www.w3.org/2000/svg" xmlns:xlink="http://www.w3.org/1999/xlink" x="0px"
	 y="0px" width="445.5px" height="512px" viewBox="0 0 445.5 512" enable-background="new 0 0 445.5 512" xml:space="preserve">
<g id="flat">
	<path fill="#D3843D" d="M146.202,251.226l-0.191-0.357v261.138h156.724V250.8L146.202,251.226z"/>
	<path fill="#D3843D" d="M271.573,76.662l22.455-34.828L250.493,7.007h-52.241l-43.535,34.828l20.871,31.475L271.573,76.662z"/>
	<path fill="#AD6327" d="M76.356,102.783V76.662l52.241-43.535h17.414l32.398,32.398h91.927l32.398-32.398h17.414l52.241,43.535
		v26.121H76.356z"/>
	<path fill="#D3843D" d="M331.233,204.096l23.744-31.658v-17.414l17.413-8.707v-43.535l-43.534-26.121l-30.675,26.121H150.564
		L119.89,76.662l-43.535,26.121v43.535l17.414,8.707v17.414l23.743,31.658H331.233z"/>
	<g>
		<path fill="#F9BB4B" d="M302.735,189.852v-60.948c0-43.278-35.083-78.362-78.362-78.362c-43.278,0-78.362,35.084-78.362,78.362
			v60.948l-34.828,17.414c-6.18,3.488-9.624,10.377-8.707,17.414v8.707c0,9.618,7.796,17.414,17.414,17.414
			c11.53,0.209,21.85,7.206,26.312,17.841c10.709,23.831,43.927,43.107,78.171,43.107c34.505,0,67.974-19.573,78.415-43.665
			c4.263-10.341,14.283-17.141,25.467-17.283h0.496c9.618,0.059,17.461-7.692,17.519-17.309c0-0.035,0.001-0.069,0.001-0.104v-8.707
			c0.916-7.037-2.529-13.925-8.707-17.414L302.735,189.852z"/>
		<path fill="#F9BB4B" d="M128.597,33.127L93.769,12.04c-12.86-7.262-38.676-6.095-52.241,0l-26.121,7.836
			c-4.354,2.04-6.23,7.224-4.19,11.579c0.864,1.843,2.347,3.326,4.19,4.189l43.534,23.604L128.597,33.127z"/>
		<path fill="#F9BB4B" d="M320.149,33.127l34.828-21.088c12.859-7.262,38.675-6.095,52.241,0l26.12,7.836
			c4.344,2.061,6.195,7.253,4.135,11.598c-0.861,1.814-2.321,3.275-4.135,4.136l-43.534,23.639L320.149,33.127z"/>
	</g>
	<circle fill="#143441" cx="124.243" cy="124.55" r="13.06"/>
	<circle fill="#143441" cx="324.502" cy="124.55" r="13.06"/>
	<path fill="#DA1C4B" d="M241.787,233.386c-9.618,0-17.414-7.796-17.414-17.414c0,9.618-7.797,17.414-17.414,17.414h-7.785
		c-0.585,2.866-0.895,5.782-0.922,8.707c0,19.233,11.693,34.828,26.121,34.828s26.121-15.595,26.121-34.828
		c-0.028-2.925-0.338-5.841-0.923-8.707H241.787z"/>
	<path fill="#301A12" d="M241.787,224.679c-4.81,0-8.707-3.898-8.707-8.707V183.2l14.087-28.176h7.68
		c2.404,0,4.354,1.949,4.354,4.354s-1.949,4.354-4.354,4.354h-4.354v17.414h4.354c12.022,0,21.768-9.745,21.768-21.767
		s-9.745-21.767-21.768-21.767h-18.441l-12.033,24.065l-12.034-24.065h-18.44c-12.022,0-21.767,9.745-21.767,21.767
		s9.745,21.767,21.767,21.767h4.354v-17.414h-4.354c-2.404,0-4.354-1.949-4.354-4.354s1.949-4.354,4.354-4.354h7.679l14.088,28.176
		v32.772c0,4.809-3.898,8.707-8.707,8.707h-43.535v17.414h43.535c6.446-0.022,12.653-2.444,17.414-6.792
		c4.76,4.348,10.967,6.77,17.414,6.792h43.535v-17.414H241.787z"/>
</g>
</svg>
