<?xml version="1.0" encoding="utf-8"?>
<!-- Generator: Adobe Illustrator 16.0.0, SVG Export Plug-In . SVG Version: 6.00 Build 0)  -->
<!DOCTYPE svg PUBLIC "-//W3C//DTD SVG 1.1//EN" "http://www.w3.org/Graphics/SVG/1.1/DTD/svg11.dtd">
<svg version="1.1" id="레이어_1" xmlns="http://www.w3.org/2000/svg" xmlns:xlink="http://www.w3.org/1999/xlink" x="0px"
	 y="0px" width="640px" height="640px" viewBox="0 0 640 640" enable-background="new 0 0 640 640" xml:space="preserve">
<rect fill="#C4C4C4" width="640" height="640"/>
<g>
	<path fill="#767677" d="M227.41,377.516h181.719V640H227.41V377.516z"/>
	<path fill="#767677" d="M453.548,176.868l26.25-20.191c9.25-7.075,13.249-19.077,10.095-30.286l-20.191-50.479
		c-2.1-9.469-10.499-20.191-20.19-20.191c-8.329,0-16.93,12.579-20.19,20.191l-20.191,50.479v30.286L453.548,176.868z"/>
	<path fill="#767677" d="M182.989,176.868l-26.249-20.191c-9.251-7.075-13.251-19.077-10.095-30.286l20.191-50.479
		c2.1-9.469,10.498-20.191,20.191-20.191c8.278,0,16.88,12.579,20.191,20.191l20.191,50.479v30.286L182.989,176.868z"/>
	<path fill="#767677" d="M393.288,205.893l7.542-38.929l-52.295-41.836h-62.764l-52.295,41.836l7.542,38.929H393.288z"/>
	<path fill="#767677" d="M264.974,194.242l-37.564-37.565h-20.191l-60.574,50.478v30.287h126.426L264.974,194.242z"/>
	<path fill="#767677" d="M373.563,237.441h116.33v-30.287l-60.572-50.478h-20.191l-37.566,37.565L373.563,237.441z"/>
	<path fill="#767677" d="M232.689,236.179h-86.044v50.477l20.191,10.096v20.191l27.529,36.707l49.358-6.42L232.689,236.179z"/>
	<path fill="#767677" d="M403.849,236.179h86.044v50.477l-20.191,10.096v20.191l-27.53,36.707l-43.138-1.373L403.849,236.179z"/>
	<path fill="#767677" d="M248.942,454.555c19.841,15.396,44.214,23.804,69.327,23.917c40.008,0,78.813-22.696,90.92-50.618
		c4.937-11.996,16.558-19.887,29.528-20.052h0.575c11.152,0.068,20.246-8.917,20.313-20.069c0-0.039,0.001-0.08,0.001-0.12v-10.097
		c1.063-8.158-2.932-16.146-10.096-20.19l-40.382-20.19v-67.832c0.619-45.761-32.247-85.126-77.383-92.688
		c-49.625-7.443-95.889,26.752-103.332,76.377c-0.668,4.46-1.004,8.964-1.004,13.474v70.669l-40.382,20.19
		c-7.165,4.045-11.159,12.032-10.096,20.19v10.097c0,11.149,9.041,20.189,20.191,20.189c2.264,0.028,4.518,0.3,6.725,0.81
		L248.942,454.555z"/>
	<g>
		<circle fill="#767677" cx="202.17" cy="271.513" r="15.143"/>
		<circle fill="#767677" cx="434.368" cy="271.513" r="15.143"/>
	</g>
</g>
</svg>
