<?xml version="1.0" encoding="utf-8"?>
<!-- Generator: Adobe Illustrator 16.0.0, SVG Export Plug-In . SVG Version: 6.00 Build 0)  -->
<!DOCTYPE svg PUBLIC "-//W3C//DTD SVG 1.1//EN" "http://www.w3.org/Graphics/SVG/1.1/DTD/svg11.dtd">
<svg version="1.1" id="Layer_1" xmlns="http://www.w3.org/2000/svg" xmlns:xlink="http://www.w3.org/1999/xlink" x="0px" y="0px"
	 width="608px" height="794.5px" viewBox="94.5 5.5 608 794.5" enable-background="new 94.5 5.5 608 794.5" xml:space="preserve">
<g>
	<path fill="#7B60F1" d="M619.253,639.011c15.175,0,27.464,12.308,27.464,27.464c0,15.175-12.289,27.464-27.464,27.464
		s-27.464-12.289-27.464-27.464C591.789,651.318,604.078,639.011,619.253,639.011z"/>
	<path fill="#7B60F1" d="M187.748,565.24c18.247,0,33.05,14.804,33.05,33.05c0,18.247-14.803,33.051-33.05,33.051
		s-33.05-14.804-33.05-33.051C154.698,580.044,169.501,565.24,187.748,565.24z"/>
	<path fill="#7B60F1" d="M583.168,778.526c0,8.1-1.992,15.752-5.511,22.474H211.935c-1.527-5.14-2.346-10.612-2.346-16.236
		c0-32.006,25.938-57.925,57.943-57.925c5.81,0,11.414,0.856,16.702,2.439c17.261,5.195,31.131,18.228,37.48,34.967
		c7.226-12.736,20.91-21.356,36.625-21.356c12.624,0,23.927,5.567,31.653,14.356c9.794-18.117,28.953-30.406,50.999-30.406
		c21.523,0,40.273,11.729,50.271,29.177c5.492-10.483,14.653-18.731,25.807-22.995c5.381-2.067,11.246-3.203,17.371-3.203
		C561.347,729.817,583.168,751.62,583.168,778.526z"/>
</g>
<path fill="#FFDC7C" d="M662.488,250.572c0,6.814-1.937,13.686-5.939,19.717l-77.047,116.464
	c-25.657,38.784-44.817,81.311-56.92,125.904c-1.694,6.275-4.116,137.077-5.511,220.343v0.019
	c-11.153,4.264-20.314,12.513-25.807,22.995c-9.998-17.446-28.748-29.177-50.271-29.177c-22.046,0-41.205,12.289-50.999,30.406
	c-7.727-8.789-19.029-14.355-31.653-14.355c-15.714,0-29.399,8.62-36.625,21.355c-6.35-16.738-20.22-29.771-37.48-34.967
	l-3.463-226.45c-2.178-18.042-12.028-34.297-27.128-44.407c-10.93-7.299-19.979-17.335-26.31-29.177
	c-19.084-35.731-47.274-66.359-82.317-88.48l-5.102-3.222c-20.594-12.997-26.309-40.478-12.568-60.606l0.651-0.969
	c14.188-20.834,42.844-25.174,62.413-9.646c18.042,14.319,39.845,31.634,58.186,46.139c1.62,1.284,3.314,2.271,5.064,2.999
	c11.301,4.654,24.373-2.122,27.37-13.76c0.595-2.328,0.8-4.84,0.503-7.503L258.372,88.063
	c-2.346-20.799,11.618-39.958,32.156-44.072c2.662-0.521,5.344-0.781,7.931-0.781c19.495,0,36.755,14.188,39.846,34.203
	l22.306,145.102c0.727,4.73,7.635,4.375,7.913-0.391l9.309-166.383c1.322-23.553,21.265-41.689,44.836-40.739
	c23.293,0.95,41.484,20.128,41.484,43.122c0,0.781-0.037,1.583-0.074,2.402L455.587,214.6c-0.466,8.397,11.358,10.725,14.096,2.756
	l34.781-101.587c7.448-21.766,31.857-32.622,52.99-23.553c14.896,6.386,23.981,20.928,23.981,36.345
	c0,4.116-0.633,8.268-1.974,12.346l-43.737,133.426c-3.091,9.403,8.956,16.217,15.436,8.771l48.56-55.97
	c13.089-15.082,36.01-16.535,50.888-3.185C658.428,230.948,662.488,240.705,662.488,250.572z"/>
<path fill="#FFAC33" d="M334.506,729.278c0,0-5.643,22.381-12.792,34.967c-6.351-16.739-20.221-29.771-37.481-34.967l-3.462-226.45
	c-2.179-18.042-12.028-34.297-27.129-44.408c-10.93-7.298-19.978-17.334-26.309-29.177c-19.085-35.731-47.275-66.359-82.317-88.479
	l-5.102-3.222c-20.594-12.997-26.31-40.478-12.569-60.606l0.652-0.969c13.815-20.276,41.334-24.931,60.829-10.836
	c-4.003,2.868-7.597,6.499-10.558,10.836l-0.651,0.969c-13.741,20.128-8.025,47.61,12.568,60.606l5.102,3.222
	c35.042,22.121,63.231,52.749,82.317,88.479c6.331,11.843,15.38,21.879,26.309,29.177c15.101,10.111,24.95,26.366,27.129,44.408
	L334.506,729.278z"/>
<path fill="#FFAC33" d="M427.584,445.276c-6.349-121.939-125.42-104.212-173.923-129.814c11.301,4.655,24.373-2.122,27.37-13.759
	c19.605,3.705,46.771,10.93,81.738,24.856C444.008,358.918,427.584,445.276,427.584,445.276z"/>
<g>
	<circle fill="#7540EE" cx="668.12" cy="715.352" r="13.964"/>
	<circle fill="#7540EE" cx="573.16" cy="499.367" r="13.964"/>
	<circle fill="#7540EE" cx="139.337" cy="679.975" r="13.964"/>
	<circle fill="#7540EE" cx="165.396" cy="449.095" r="13.964"/>
</g>
</svg>
