<?xml version="1.0" encoding="utf-8"?>
<!-- Generator: Adobe Illustrator 16.0.0, SVG Export Plug-In . SVG Version: 6.00 Build 0)  -->
<!DOCTYPE svg PUBLIC "-//W3C//DTD SVG 1.1//EN" "http://www.w3.org/Graphics/SVG/1.1/DTD/svg11.dtd">
<svg version="1.1" id="Capa_1" xmlns="http://www.w3.org/2000/svg" xmlns:xlink="http://www.w3.org/1999/xlink" x="0px" y="0px"
	 width="512px" height="512px" viewBox="31.5 1 512 512" enable-background="new 31.5 1 512 512" xml:space="preserve">
<g>
	<path fill="#FFDC7C" d="M543.5,258c0,108.01-66.9,200.4-161.521,238c-29.23,11.61-61.109-11.71-94.479-11.71
		c-15.59,0-30.86-1.4-45.67-4.07c-16.91-3.04-33.24,21.971-48.811,15.78C98.4,458.4,31.5,366.01,31.5,258
		c0-141.38,114.62-256,256-256S543.5,116.62,543.5,258z"/>
	<g>
		<g>
			<path fill="#454045" d="M272.393,376.593h-59.955v1.812c0,32.111,26.031,58.144,58.144,58.144h1.812V376.593z"/>
			<path fill="#544F57" d="M302.607,376.593h59.955v1.812c0,32.111-26.031,58.144-58.143,58.144h-1.813V376.593z"/>
		</g>
		<path fill="#F9F6F9" d="M421.903,191.902H153.097c-7.621,0-13.799-6.178-13.799-13.799v-1.022c0-7.621,6.178-13.799,13.799-13.799
			h268.807c7.621,0,13.799,6.178,13.799,13.799v1.022C435.702,185.724,429.525,191.902,421.903,191.902L421.903,191.902z"/>
		<path fill="#DDDAEC" d="M428.548,191.902H146.452c-3.952,0-7.155-3.203-7.155-7.155s3.204-7.155,7.155-7.155h282.095
			c3.951,0,7.154,3.203,7.154,7.155C435.702,188.699,432.498,191.902,428.548,191.902z"/>
		<path fill="#544F57" d="M381.98,480.22V496c-24.32,9.66-50.47,15.7-77.79,17.46c-5.52,0.36-11.08-29.17-16.689-29.17
			c-5.61,0-11.17,29.53-16.69,29.17c-27.32-1.76-53.47-7.8-77.79-17.46v-15.78c0-35.319,19.38-66.1,48.08-82.31
			c13.71-7.75,29.55,19.611,46.41,19.611s32.69-27.361,46.39-19.611c7.5,4.23,14.36,9.46,20.41,15.51
			C371.4,430.51,381.98,454.13,381.98,480.22L381.98,480.22z"/>
		<path fill="#454045" d="M311.91,388.93c-40.341,10.75-70.08,47.551-70.08,91.29v29.71c-16.91-3.04-33.24-7.739-48.811-13.93
			v-15.78c0-35.319,19.374-66.105,48.075-82.317c13.709-7.743,29.545,19.619,46.415,19.619
			C295.95,417.521,304.13,386.85,311.91,388.93z"/>
		<path fill="#707DD3" d="M333.9,397.91l-29.71,115.55c-5.52,0.36-11.08,0.54-16.689,0.54c-5.61,0-11.17-0.18-16.69-0.54
			l-19.28-74.979l-10.43-40.57c13.71-7.75,29.55-12.17,46.41-12.17c8.42,0,16.58,1.1,24.35,3.17c0.021,0.01,0.03,0.02,0.051,0.02
			C319.68,391,327.06,394.04,333.9,397.91L333.9,397.91z"/>
		<path fill="#5766CB" d="M311.91,388.93C285.39,396,263.45,414.32,251.53,438.48l-10.43-40.57c13.71-7.75,29.55-12.17,46.41-12.17
			c8.42,0,16.58,1.1,24.35,3.17C311.88,388.92,311.89,388.93,311.91,388.93L311.91,388.93z"/>
		<path fill="#707DD3" d="M320.29,336.952v47.774c0,18.106-14.689,32.795-32.784,32.795c-4.449,0-8.688-0.881-12.552-2.485
			c-11.882-4.935-20.244-16.64-20.244-30.312v-47.773L320.29,336.952L320.29,336.952z"/>
		<path fill="#5766CB" d="M298.27,415.706c-3.37,1.17-6.99,1.81-10.76,1.81c-4.45,0-8.69-0.88-12.55-2.479
			c-11.88-4.94-20.25-16.64-20.25-30.31v-47.781h21.529v47.781c0,13.67,8.36,25.369,20.24,30.31
			C297.07,415.275,297.66,415.506,298.27,415.706z"/>
		<g>
			<path fill="#5766CB" d="M388.147,294.552H186.853c-32.121,0-58.16-26.038-58.16-58.16c0-20.086,16.283-36.37,36.37-36.37h244.876
				c20.086,0,36.37,16.283,36.37,36.37C446.308,268.514,420.268,294.552,388.147,294.552z"/>
			<path fill="#3D4FC3" d="M186.853,274.945c-21.258,0-38.553-17.295-38.553-38.553c0-9.243,7.519-16.762,16.762-16.762h244.876
				c9.243,0,16.762,7.52,16.762,16.762c0,21.258-17.295,38.553-38.553,38.553H186.853z"/>
		</g>
		<g>
			<path fill="#707DD3" d="M174.742,64v203.395c0,62.274,50.483,112.758,112.758,112.758s112.758-50.484,112.758-112.758V64H174.742
				z"/>
			<path fill="#5766CB" d="M233.003,64v203.395c0,52.203,35.478,96.121,83.632,108.955c-9.294,2.479-19.058,3.803-29.136,3.803
				c-62.281,0-112.758-50.478-112.758-112.758V64"/>
		</g>
		<path fill="#5766CB" d="M287.5,273.848c-6.456,0-11.689-5.232-11.689-11.688v-76.661c0-6.456,5.233-11.689,11.689-11.689
			s11.688,5.233,11.688,11.689v76.661C299.189,268.615,293.956,273.848,287.5,273.848z"/>
		<g>
			<g>
				<circle fill="#F9F6F9" cx="234.449" cy="229.715" r="37.246"/>
				<path fill="#DDDAEC" d="M243.798,265.775c-2.998,0.771-6.12,1.182-9.354,1.182c-20.573,0-37.24-16.668-37.24-37.241
					c0-20.573,16.668-37.241,37.24-37.241c3.234,0,6.356,0.411,9.354,1.182c-16.059,4.142-27.912,18.708-27.912,36.06
					C215.885,247.067,227.739,261.633,243.798,265.775z"/>
				<circle fill="#454045" cx="236.103" cy="229.715" r="14.872"/>
			</g>
			<g>
				<circle fill="#F9F6F9" cx="340.551" cy="229.715" r="37.246"/>
				<path fill="#DDDAEC" d="M349.9,265.775c-2.998,0.771-6.12,1.182-9.354,1.182c-20.574,0-37.241-16.668-37.241-37.241
					c0-20.573,16.668-37.241,37.241-37.241c3.233,0,6.355,0.411,9.354,1.182c-16.058,4.142-27.912,18.708-27.912,36.06
					C321.988,247.067,333.842,261.633,349.9,265.775z"/>
				<circle fill="#454045" cx="338.897" cy="229.715" r="14.872"/>
			</g>
		</g>
		<path fill="#F9F6F9" d="M329.365,289.002c-0.391-0.549-0.834-1.066-1.329-1.563c-4.973-4.982-13.037-4.972-18.01,0
			c-12.425,12.426-32.64,12.426-45.064,0c-4.973-4.982-13.037-4.972-18.009,0c-0.486,0.496-0.93,1.014-1.32,1.563
			c-3.6,4.973-3.156,11.96,1.32,16.438c2.713,2.713,5.627,5.088,8.697,7.146c19.202,12.826,44.484,12.826,63.687,0
			c3.072-2.06,5.984-4.435,8.698-7.146C332.512,300.962,332.954,293.975,329.365,289.002z"/>
		<g>
			<path fill="#F9F6F9" d="M144.731,222.647h-10.932c-8.222,0-14.888-6.666-14.888-14.888v-60.335
				c0-8.222,6.666-14.888,14.888-14.888h10.932c8.223,0,14.889,6.665,14.889,14.888v60.335
				C159.619,215.981,152.953,222.647,144.731,222.647z"/>
			<path fill="#F9F6F9" d="M441.2,222.647h-10.932c-8.222,0-14.888-6.666-14.888-14.888v-60.335c0-8.222,6.666-14.888,14.888-14.888
				H441.2c8.223,0,14.889,6.665,14.889,14.888v60.335C456.089,215.981,449.423,222.647,441.2,222.647z"/>
		</g>
		<g>
			<path fill="#DDDAEC" d="M159.621,178.487v29.27c0,8.23-6.67,14.89-14.891,14.89h-10.93c-8.22,0-14.89-6.66-14.89-14.89v-29.27
				c0,8.22,6.67,14.89,14.89,14.89h10.93C152.951,193.377,159.621,186.707,159.621,178.487z"/>
			<path fill="#DDDAEC" d="M456.091,178.487v29.27c0,8.23-6.67,14.89-14.891,14.89h-10.93c-8.22,0-14.89-6.66-14.89-14.89v-29.27
				c0,8.22,6.67,14.89,14.89,14.89h10.93C449.421,193.377,456.091,186.707,456.091,178.487z"/>
		</g>
		<path fill="#544F57" d="M382.327,28.796c-14.637,0-172.906,0-187.542,0c-18.121,0-32.812,14.69-32.812,32.811
			s14.69,32.812,32.812,32.812c14.637,0,27.029-9.586,31.257-22.821c4.227,13.235,16.62,22.821,31.257,22.821
			s27.03-9.586,31.257-22.821c4.228,13.235,16.62,22.821,31.257,22.821s27.03-9.586,31.257-22.821
			c4.228,13.235,16.62,22.821,31.257,22.821c18.121,0,32.812-14.69,32.812-32.812C415.14,43.487,400.448,28.796,382.327,28.796
			L382.327,28.796z"/>
		<path fill="#454045" d="M266.444,93.127c-2.899,0.84-5.97,1.29-9.14,1.29c-14.64,0-27.03-9.58-31.26-22.82
			c-4.22,13.24-16.62,22.82-31.26,22.82c-18.12,0-32.811-14.69-32.811-32.81s14.69-32.81,32.811-32.81h80.81
			c-18.12,0-32.81,14.69-32.81,32.81C242.784,76.547,252.774,89.157,266.444,93.127L266.444,93.127z"/>
		<path fill="#3D4FC3" d="M174.742,137.061h225.517v15H174.742V137.061z"/>
		<g>
			<g>
				<path fill="#544F57" d="M377.798,167.308c-4.143,0-7.5-3.358-7.5-7.5v-27.271c0-4.142,3.357-7.5,7.5-7.5
					c4.142,0,7.5,3.358,7.5,7.5v27.271C385.298,163.95,381.94,167.308,377.798,167.308z"/>
				<path fill="#544F57" d="M337.776,167.308c-4.142,0-7.5-3.358-7.5-7.5v-27.271c0-4.142,3.358-7.5,7.5-7.5
					c4.143,0,7.5,3.358,7.5,7.5v27.271C345.276,163.95,341.918,167.308,337.776,167.308z"/>
				<path fill="#544F57" d="M237.224,167.308c-4.142,0-7.5-3.358-7.5-7.5v-27.271c0-4.142,3.358-7.5,7.5-7.5
					c4.143,0,7.5,3.358,7.5,7.5v27.271C244.724,163.95,241.366,167.308,237.224,167.308z"/>
			</g>
			<path fill="#454045" d="M197.202,167.308c-4.143,0-7.5-3.358-7.5-7.5v-27.271c0-4.142,3.357-7.5,7.5-7.5
				c4.142,0,7.5,3.358,7.5,7.5v27.271C204.702,163.95,201.344,167.308,197.202,167.308z"/>
		</g>
		<path fill="#544F57" d="M287.5,167.308c-4.143,0-7.5-3.358-7.5-7.5v-27.271c0-4.142,3.357-7.5,7.5-7.5c4.142,0,7.5,3.358,7.5,7.5
			v27.271C295,163.95,291.642,167.308,287.5,167.308z"/>
	</g>
</g>
</svg>
