<?xml version="1.0" encoding="utf-8"?>
<!-- Generator: Adobe Illustrator 16.0.0, SVG Export Plug-In . SVG Version: 6.00 Build 0)  -->
<!DOCTYPE svg PUBLIC "-//W3C//DTD SVG 1.1//EN" "http://www.w3.org/Graphics/SVG/1.1/DTD/svg11.dtd">
<svg version="1.1" id="레이어_1" xmlns="http://www.w3.org/2000/svg" xmlns:xlink="http://www.w3.org/1999/xlink" x="0px"
	 y="0px" width="512px" height="512px" viewBox="0 0 512 512" enable-background="new 0 0 512 512" xml:space="preserve">
<g id="flat">
	<path fill="#AD6327" d="M177.764,299.482l-34.708,8.676l-43.365,69.396l10.417,78.809l32.956-9.411l-8.674-69.397l52.047-52.048
		L177.764,299.482z"/>
	<path fill="#D3843D" d="M403.304,308.158l26.023-112.771l-52.048-26.024v-17.349H186.438v34.698c0,17.35-15.172,17.35-26.022,17.35
		c-11.391,0-17.351-14.643-17.351-26.024V39.244H31.917C18.564,39.02,7.008,48.482,4.592,61.616
		C1.556,81.342,21.108,91.292,38.97,91.292l34.698,24.098l-8.675,71.323c-4.042,32.807,13.81,72,43.374,86.747l34.697,17.349v17.351
		h26.024l26.022,69.396v86.746h34.699l8.675-86.746l-26.023-69.396h121.444l17.351,69.396l34.697,26.024v60.722h34.698v-86.746
		l-17.35-26.023L403.304,308.158L403.304,308.158z"/>
	<path fill="#AD6327" d="M143.065,39.244l52.048-26.024c0,0,8.676,34.699-17.349,43.373c-13.992,4.981-29.373-2.322-34.354-16.313
		C143.288,39.937,143.174,39.592,143.065,39.244z"/>
	<path fill="#394D5C" d="M186.438,464.301h43.374l0,0V499l0,0H169.09l0,0v-17.35C169.09,472.068,176.857,464.301,186.438,464.301z"
		/>
	<path fill="#394D5C" d="M377.281,464.301h43.373l0,0V499l0,0h-60.723l0,0v-17.35C359.931,472.068,367.698,464.301,377.281,464.301z
		"/>
	<path fill="#394D5C" d="M299.207,464.301h43.373l0,0V499l0,0H281.86l0,0v-17.35C281.86,472.068,289.627,464.301,299.207,464.301z"
		/>
	<path fill="#301A12" d="M91.018,65.268h17.35v17.349h-17.35V65.268z"/>
	<path fill="#FFDC7C" d="M73.668,334.182c-14.412,0.273-28.307-5.369-38.446-15.615c-9.384-9.865-14.303-23.153-13.602-36.754
		L30.295,90.91l0.112-1.049l7.243-43.486c0.786-4.726,5.255-7.92,9.98-7.133c0.004,0.001,0.008,0.001,0.013,0.002
		c4.727,0.788,7.918,5.257,7.131,9.982c0,0,0,0.001,0,0.002l-7.131,42.974L38.97,282.523c-0.535,8.863,2.639,17.549,8.761,23.979
		c6.869,6.844,16.243,10.577,25.938,10.331c6.68,0,28.921-1.449,35.149-20.091l31.957-95.872c1.517-4.54,6.423-6.993,10.965-5.482
		c4.539,1.517,6.992,6.423,5.482,10.964l-31.965,95.873C118.585,322.236,99.293,334.182,73.668,334.182z"/>
	<path fill="#AD6327" d="M429.327,195.388c0,0,69.397,34.698,78.072,95.42c8.675,60.724-28.887-13.123-43.374-26.023
		c-13.515-10.867-28.587-19.639-44.709-26.023L429.327,195.388z"/>
	<path fill="#AD6327" d="M316.558,308.158l-26.022,78.07l26.022,78.071h26.022l-8.674-69.396l11.885-39.156l-11.894-47.59H316.558z"
		/>
	<path fill="#394D5C" d="M143.065,446.952l-36.521,10.409c-13.521,3.843-21.546,17.725-18.13,31.357L91.018,499l60.722-17.35
		L143.065,446.952z"/>
	<path fill="#97DFFC" d="M186.438,152.015c0,43.122,42.724,78.071,95.421,78.071c52.698,0,95.421-34.95,95.421-78.071H186.438z"/>
	<path fill="#33CFFF" d="M229.812,212.737c-4.792,0-8.674-3.883-8.674-8.674v-52.048h17.349v52.048
		C238.487,208.854,234.602,212.737,229.812,212.737z"/>
	<path fill="#33CFFF" d="M264.511,230.086c-4.792,0-8.676-3.883-8.676-8.674v-69.397h17.35v69.397
		C273.185,226.203,269.3,230.086,264.511,230.086z"/>
	<path fill="#33CFFF" d="M299.207,230.086c-4.79,0-8.673-3.883-8.673-8.674v-69.397h17.35v69.397
		C307.884,226.203,303.998,230.086,299.207,230.086z"/>
	<path fill="#33CFFF" d="M333.906,212.737c-4.792,0-8.674-3.883-8.674-8.674v-52.048h17.348v52.048
		C342.58,208.854,338.698,212.737,333.906,212.737z"/>
	<path fill="#7540EE" d="M177.764,117.315h208.19v34.699h-208.19V117.315z"/>
	<path fill="#7B60F1" d="M195.113,82.617h173.494v34.698H195.113V82.617z"/>
	<path fill="#7540EE" d="M212.463,47.919h138.794v34.698H212.463V47.919z"/>
	<g>
		<path fill="#FFDC7C" d="M238.487,47.919h17.35v34.698h-17.35V47.919z"/>
		<path fill="#FFDC7C" d="M221.137,82.617h17.349v34.698h-17.349V82.617z"/>
		<path fill="#FFDC7C" d="M203.788,117.315h17.35v34.699h-17.35V117.315z"/>
		<path fill="#FFDC7C" d="M307.884,47.919h17.35v34.698h-17.35V47.919z"/>
		<path fill="#FFDC7C" d="M325.234,82.617h17.348v34.698h-17.348V82.617z"/>
		<path fill="#FFDC7C" d="M342.58,117.315h17.351v34.699H342.58V117.315z"/>
	</g>
</g>
</svg>
