<?xml version="1.0" encoding="utf-8"?>
<!-- Generator: Adobe Illustrator 16.0.0, SVG Export Plug-In . SVG Version: 6.00 Build 0)  -->
<!DOCTYPE svg PUBLIC "-//W3C//DTD SVG 1.1//EN" "http://www.w3.org/Graphics/SVG/1.1/DTD/svg11.dtd">
<svg version="1.1" id="레이어_1" xmlns="http://www.w3.org/2000/svg" xmlns:xlink="http://www.w3.org/1999/xlink" x="0px"
	 y="0px" width="445.5px" height="512px" viewBox="0 0 445.5 512" enable-background="new 0 0 445.5 512" xml:space="preserve">
<g id="flat">
	<path fill="#D3843D" d="M302.506,260.78l0.19,0.357V0H145.973l0,261.207L302.506,260.78z"/>
	<path fill="#D3843D" d="M177.135,435.345l-22.455,34.828L198.214,505h52.241l43.535-34.827l-20.871-31.476L177.135,435.345z"/>
	<path fill="#AD6327" d="M372.352,409.224v26.121l-52.241,43.535h-17.414l-32.397-32.398l-91.928-0.001l-32.398,32.399h-17.414
		l-52.241-43.535v-26.121H372.352z"/>
	<path fill="#D3843D" d="M117.475,307.91l-23.744,31.658v17.414l-17.413,8.707v43.534l43.534,26.121l30.675-26.121h147.617
		l30.674,26.121l43.534-26.121v-43.534l-17.413-8.706v-17.414l-23.743-31.658L117.475,307.91z"/>
	<g>
		<path fill="#F9BB4B" d="M145.973,322.155v60.948c0,43.278,35.083,78.362,78.362,78.362s78.362-35.084,78.362-78.362v-60.948
			l34.828-17.414c6.18-3.488,9.624-10.377,8.707-17.414v-8.707c0-9.617-7.796-17.413-17.414-17.413
			c-11.53-0.21-21.851-7.206-26.312-17.841c-10.71-23.831-43.927-43.107-78.171-43.107c-34.506,0-67.975,19.573-78.415,43.665
			c-4.263,10.341-14.283,17.141-25.467,17.283h-0.496c-9.618-0.059-17.461,7.691-17.519,17.309c0,0.035-0.001,0.069-0.001,0.104
			v8.707c-0.916,7.037,2.529,13.926,8.707,17.414L145.973,322.155z"/>
		<path fill="#F9BB4B" d="M320.111,478.88l34.828,21.088c12.86,7.262,38.676,6.095,52.241,0l26.12-7.837
			c4.354-2.04,6.23-7.224,4.19-11.579c-0.864-1.842-2.347-3.325-4.19-4.188l-43.534-23.604L320.111,478.88z"/>
		<path fill="#F9BB4B" d="M128.559,478.88l-34.828,21.088c-12.859,7.261-38.675,6.095-52.241-0.001l-26.12-7.836
			c-4.344-2.061-6.195-7.254-4.135-11.598c0.861-1.814,2.321-3.275,4.135-4.136l43.534-23.639L128.559,478.88z"/>
	</g>
	<circle fill="#143441" cx="324.464" cy="387.457" r="13.06"/>
	<circle fill="#143441" cx="124.205" cy="387.457" r="13.06"/>
	<path fill="#DA1C4B" d="M206.921,278.62c9.618,0,17.414,7.797,17.414,17.414c0-9.617,7.797-17.414,17.413-17.414h7.785
		c0.585-2.866,0.895-5.781,0.922-8.707c0-19.232-11.693-34.827-26.12-34.827c-14.428,0-26.121,15.595-26.121,34.827
		c0.028,2.926,0.338,5.841,0.924,8.707H206.921z"/>
	<path fill="#301A12" d="M206.921,287.327c4.81,0,8.707,3.898,8.707,8.707v32.772l-14.087,28.176h-7.681
		c-2.404,0-4.354-1.949-4.354-4.354s1.949-4.354,4.354-4.354h4.354v-17.413h-4.354c-12.022,0-21.768,9.745-21.768,21.767
		c0,12.022,9.745,21.768,21.768,21.768h18.441l12.033-24.065l12.033,24.065h18.44c12.022,0,21.768-9.745,21.768-21.767
		c0-12.022-9.745-21.768-21.768-21.768h-4.354v17.413h4.354c2.404,0,4.354,1.95,4.354,4.354s-1.949,4.353-4.354,4.353h-7.679
		l-14.088-28.176v-32.772c0-4.809,3.898-8.707,8.706-8.707h43.535v-17.414h-43.535c-6.446,0.022-12.653,2.444-17.413,6.792
		c-4.76-4.348-10.967-6.77-17.414-6.792h-43.535v17.414H206.921z"/>
</g>
</svg>
