<?xml version="1.0" encoding="utf-8"?>
<!-- Generator: Adobe Illustrator 16.0.0, SVG Export Plug-In . SVG Version: 6.00 Build 0)  -->
<!DOCTYPE svg PUBLIC "-//W3C//DTD SVG 1.1//EN" "http://www.w3.org/Graphics/SVG/1.1/DTD/svg11.dtd">
<svg version="1.1" id="레이어_1" xmlns="http://www.w3.org/2000/svg" xmlns:xlink="http://www.w3.org/1999/xlink" x="0px"
	 y="0px" width="363.5px" height="512px" viewBox="0 0 363.5 512" enable-background="new 0 0 363.5 512" xml:space="preserve">
<g id="flat">
	<path fill="#AD6327" d="M228.365,126.372l23.766-23.765l-43.67-34.938h-52.407l-43.671,34.938l23.765,23.765l46.11,11.172
		L228.365,126.372z"/>
	<path fill="#F9BB4B" d="M299.297,111.341l22.711-17.469c8.001-6.12,11.461-16.503,8.732-26.202l-17.469-43.672
		c-1.817-8.191-9.085-17.468-17.47-17.468c-7.205,0-14.647,10.883-17.469,17.468l-17.468,43.672v26.202L299.297,111.341z"/>
	<path fill="#F9BB4B" d="M65.219,111.341L42.509,93.872c-8.005-6.12-11.464-16.503-8.735-26.202l17.469-43.672
		c1.817-8.191,9.083-17.468,17.468-17.468c7.163,0,14.604,10.883,17.468,17.468l17.47,43.672v26.202L65.219,111.341z"/>
	<path fill="#D3843D" d="M321.22,129.613l-42.887-35.742h-17.468l-32.5,32.5c-27.485-20.085-64.808-20.064-92.269,0.052l0.06-0.07
		l-32.507-32.483h-17.47l-42.885,35.742l-0.786,51.602l15.721,61.707l16.849,22.456l28.779,64.747l-0.208-0.358v183.351h157.216
		v-183.42l28.587-64.303l16.834-22.473l15.718-70.441L321.22,129.613z"/>
	<path fill="#F9BB4B" d="M295.802,268.559l-34.937-17.468v-40.763l-34.936-29.112c-24.458-23.292-62.889-23.292-87.344,0
		l-34.937,29.112v40.763l-34.938,17.468c-6.198,3.5-9.654,10.407-8.733,17.468v8.733c0,9.65,7.82,17.469,17.468,17.469
		c11.566,0.211,21.919,7.229,26.395,17.896c10.743,23.906,44.065,43.243,78.417,43.243c34.615,0,68.188-19.633,78.66-43.802
		c4.277-10.374,14.329-17.194,25.549-17.338h0.498c9.647,0.06,17.515-7.716,17.572-17.363c0-0.033,0.001-0.069,0.001-0.105v-8.733
		C305.457,278.966,302,272.059,295.802,268.559z"/>
	<path fill="#301A12" d="M260.865,277.29c-2.317,0-4.537,0.924-6.175,2.561l-32.377,32.378h-22.588c-4.823,0-8.734-3.91-8.734-8.732
		v-32.877l14.132-28.264h7.706c2.411,0,4.367,1.953,4.367,4.367c0,2.41-1.957,4.368-4.367,4.368h-4.367v17.468h4.367
		c12.059,0,21.834-9.775,21.834-21.836c0-12.061-9.775-21.837-21.834-21.837h-13.104c-3.324-0.017-6.374,1.855-7.86,4.829
		l-9.607,19.311l-9.608-19.311c-1.487-2.974-4.535-4.846-7.86-4.829h-13.102c-12.061,0-21.835,9.776-21.835,21.837
		c0,12.061,9.775,21.836,21.835,21.836h4.367V251.09h-4.367c-2.413,0-4.367-1.958-4.367-4.368c0-2.414,1.954-4.367,4.367-4.367
		h7.703l14.133,28.264v32.877c0,4.822-3.912,8.732-8.734,8.732H142.2l-32.376-32.378c-1.637-1.637-3.859-2.561-6.175-2.561h-17.47
		v17.47h13.853l32.377,32.38c1.638,1.638,3.86,2.558,6.176,2.558h26.203c6.465-0.023,12.692-2.451,17.468-6.813
		c4.775,4.362,11,6.79,17.467,6.813h26.206c2.314,0,4.534-0.92,6.174-2.558l32.377-32.38h13.853v-17.47H260.865z"/>
	<path fill="#195C85" d="M313.272,128.809H225.93v34.937c-24.458-23.29-62.889-23.29-87.344,0v-34.937H51.243
		c-24.119,0-43.671,19.553-43.671,43.672v35.739c0,24.718,29.459,43.314,52.406,34.135l78.608-26.203v-17.469
		c24.455-23.292,62.886-23.292,87.344,0v17.469l78.607,26.203c22.945,9.179,52.406-9.417,52.406-34.135v-35.739
		C356.944,148.361,337.391,128.809,313.272,128.809z"/>
	<g>
		<path fill="#32B1CC" d="M27.566,201.233l43.664-43.665l12.351,12.351l-43.666,43.665L27.566,201.233z"/>
		<path fill="#32B1CC" d="M71.227,201.243l43.664-43.665l12.35,12.35l-43.663,43.664L71.227,201.243z"/>
		<path fill="#32B1CC" d="M245.895,192.525l43.664-43.664l12.353,12.35l-43.667,43.665L245.895,192.525z"/>
		<path fill="#32B1CC" d="M280.832,201.26l43.664-43.664l12.353,12.35l-43.667,43.666L280.832,201.26z"/>
	</g>
</g>
</svg>
