<?xml version="1.0" encoding="utf-8"?>
<!-- Generator: Adobe Illustrator 16.0.0, SVG Export Plug-In . SVG Version: 6.00 Build 0)  -->
<!DOCTYPE svg PUBLIC "-//W3C//DTD SVG 1.1//EN" "http://www.w3.org/Graphics/SVG/1.1/DTD/svg11.dtd">
<svg version="1.1" id="레이어_1" xmlns="http://www.w3.org/2000/svg" xmlns:xlink="http://www.w3.org/1999/xlink" x="0px"
	 y="0px" width="512px" height="393.5px" viewBox="0 0 512 393.5" enable-background="new 0 0 512 393.5" xml:space="preserve">
<g id="flat">
	<path fill="#D3843D" d="M286.926,236.246V78.782h227.448v157.464H286.926z"/>
	<path fill="#F9BB4B" d="M111.967,40.291L94.47,17.546C88.339,9.53,77.94,6.063,68.226,8.798L24.487,26.294
		C16.281,28.123,6.99,35.401,6.99,43.791c0,7.174,10.9,14.626,17.496,17.496l43.74,17.496H94.47L111.967,40.291z"/>
	<path fill="#D3843D" d="M135.769,93.847l-32.551-6.316l-34.992,43.74v52.487l34.992,43.74l32.551-6.307V93.847z"/>
	<path fill="#AD6327" d="M127.021,203.695L94.47,236.246v17.496l43.74,52.488h26.244V196.68L127.021,203.695z"/>
	<path fill="#AD6327" d="M164.454,109.602l0-100.804H138.21L94.47,61.287v17.496l32.551,32.561L164.454,109.602z"/>
	<path fill="#D3843D" d="M164.454,231.672v74.559h43.74l8.748-17.496h17.496l31.808-23.856l-5.563-42.76L164.454,231.672z"/>
	<path fill="#D3843D" d="M164.454,83.358l0-74.56h43.74l8.748,17.496l17.497,0l31.808,23.865l-1.19,37.371L164.454,83.358z"/>
	<path fill="#F9BB4B" d="M353.682,217.596c13.341-17.195,20.626-38.318,20.725-60.082c0-34.668-19.666-68.295-43.871-78.784
		c-10.393-4.279-17.227-14.35-17.365-25.588v-0.507c0.058-9.662-7.728-17.542-17.392-17.601c-0.034,0-0.07,0-0.104,0h-8.748
		c-7.069-0.921-13.991,2.54-17.496,8.748l-17.496,34.992l-61.236,0c-43.483,0-78.732,35.25-78.732,78.731
		c0,43.483,35.249,78.733,78.732,78.733h61.236l17.496,34.991c3.505,6.209,10.427,9.669,17.496,8.748h8.748
		c9.662,0,17.496-7.834,17.496-17.496c0.023-1.961,0.259-3.914,0.701-5.826L353.682,217.596z"/>
	<path fill="#143441" d="M208.447,263.461c0,9.663-7.834,17.496-17.496,17.496c-9.663,0-17.496-7.833-17.496-17.496
		c0-9.662,7.833-17.496,17.496-17.496C200.613,245.965,208.447,253.799,208.447,263.461z"/>
	<path fill="#301A12" d="M313.17,140.989c0,4.832-3.917,8.748-8.748,8.748h-59.171l-28.308-14.153v-7.716
		c0-2.416,1.958-4.374,4.374-4.374c2.415,0,4.374,1.958,4.374,4.374v4.374l17.496,0v-4.374c0-12.079-9.791-21.87-21.87-21.87
		c-12.079,0-21.87,9.792-21.87,21.87v18.528l24.179,12.089l-24.179,12.091v18.528c0,12.078,9.791,21.869,21.87,21.869
		c12.079,0,21.87-9.791,21.87-21.869v-4.375H225.69v4.375c0,2.415-1.958,4.373-4.374,4.373c-2.416,0-4.374-1.958-4.374-4.373v-7.717
		l28.308-14.154h59.171c4.831,0,8.748,3.917,8.748,8.748v43.74h17.496v-43.74c-0.023-6.477-2.455-12.713-6.823-17.496
		c4.368-4.782,6.8-11.018,6.823-17.496v-43.74H313.17V140.989z"/>
	<path fill="#143441" d="M208.195,53.509c0,9.663-7.834,17.496-17.496,17.496c-9.663,0-17.496-7.833-17.496-17.496
		c0-9.662,7.833-17.496,17.496-17.496S208.195,43.847,208.195,53.509z"/>
	<path fill="#F9BB4B" d="M94.47,254.713l-26.244,43.74c-8.074,12.921-6.815,38.858,0,52.488l8.748,26.243
		c2.916,4.832,9.196,6.385,14.028,3.469c1.42-0.857,2.611-2.047,3.468-3.469l26.244-43.739L94.47,254.713z"/>
</g>
</svg>
