<?xml version="1.0" encoding="utf-8"?>
<!-- Generator: Adobe Illustrator 16.0.0, SVG Export Plug-In . SVG Version: 6.00 Build 0)  -->
<!DOCTYPE svg PUBLIC "-//W3C//DTD SVG 1.1//EN" "http://www.w3.org/Graphics/SVG/1.1/DTD/svg11.dtd">
<svg version="1.1" id="레이어_1" xmlns="http://www.w3.org/2000/svg" xmlns:xlink="http://www.w3.org/1999/xlink" x="0px"
	 y="0px" width="315px" height="496px" viewBox="99.5 6.5 315 496" enable-background="new 99.5 6.5 315 496" xml:space="preserve">
<g>
	<path fill="none" stroke="#C4C4C4" stroke-width="25" stroke-miterlimit="10" d="M309.016,81.566c0,0,4.636-10.131,1.888-17.514
		c-2.747-7.384,0.084-33.654,0.084-33.654s19.832-3.177,29.447,22.663c9.616,25.842-5.576,18.889-6.094,40.093L309.016,81.566z"/>
	<path fill="none" stroke="#C4C4C4" stroke-width="25" stroke-miterlimit="10" d="M381.514,154.679
		c-22.88-57.875-52.716-66.169-52.716-66.169l-29.144-13.335c-11.061-8.507-25.792-10.53-38.734-5.314
		c-6.043-6.207-15.143-8.336-23.313-5.452c-11.57,3.832-19.554,10.668-20.041,22.849c-10.268,1.472-13.789-0.586-44.767,10.942
		c-50.978,18.971-53.248,77.854-42.181,107.592c11.066,29.737,24.897,14.917,24.897,14.917c9.486,25.49,20.155,2.172,20.155,2.172
		s16.401,18.078,24.402,0.591c8.002-17.487,14.026-42.818,43.763-53.884c29.737-11.067,49.506,47.662,48.511,67.909
		c-2.208,44.996-48.938,92.658-48.938,92.658s-28.508,39.306-9.662,57.774s46.674,11.481,60.246,0.903
		c13.569-10.575,13.817-27.17,15.799-32.794c4.883-13.857,14.252-21.375,14.252-21.375S416.921,244.239,381.514,154.679z"/>
	<path fill="none" stroke="#C4C4C4" stroke-width="25" stroke-miterlimit="10" d="M278.717,97.475
		c2.348-0.869,3.548-3.475,2.68-5.823c-0.036-0.095-0.073-0.187-0.114-0.278c-5.212-11.468-21.04-40.226-45.255-31.214
		c-27.94,10.397-23.845,39.891-21.337,46.633c1.139,3.058,2.836,7.622,37.935-0.281c2.46-0.551,4.006-2.992,3.457-5.452
		c-0.002-0.01-0.005-0.02-0.007-0.029c-0.566-2.407-2.953-3.918-5.371-3.396c-9.166,2.253-18.517,3.681-27.938,4.265
		c-1.228-5.976-3.598-25.793,16.424-33.245c16.87-6.278,29.486,16.991,33.83,26.48C274.017,97.285,276.497,98.304,278.717,97.475z"
		/>
	<path fill="none" stroke="#C4C4C4" stroke-width="25" stroke-miterlimit="10" d="M281.078,105.662c0,0,5.334-11.659,2.171-20.155
		c-3.161-8.497,0.097-38.73,0.097-38.73s22.821-3.655,33.888,26.08c11.069,29.739-6.419,21.736-7.013,46.14L281.078,105.662z"/>
	<circle fill="none" stroke="#C4C4C4" stroke-width="25" stroke-miterlimit="10" cx="261.45" cy="444.959" r="36.759"/>
</g>
<g>
	<path fill="#AD6327" d="M309.016,81.566c0,0,4.636-10.131,1.888-17.514c-2.747-7.384,0.084-33.654,0.084-33.654
		s19.832-3.177,29.447,22.663c9.616,25.842-5.576,18.889-6.094,40.093L309.016,81.566z"/>
	<path fill="#D3843D" d="M381.514,154.678c-22.88-57.874-52.716-66.168-52.716-66.168l-29.144-13.335
		c-11.061-8.507-25.792-10.53-38.734-5.314c-6.043-6.207-15.143-8.336-23.313-5.452c-11.57,3.832-19.554,10.668-20.041,22.849
		c-10.268,1.472-13.789-0.586-44.767,10.942c-50.978,18.971-53.248,77.854-42.181,107.592
		c11.066,29.737,24.897,14.917,24.897,14.917c9.486,25.49,20.155,2.172,20.155,2.172s16.401,18.079,24.402,0.592
		c8.002-17.488,14.026-42.818,43.763-53.885c29.737-11.067,49.506,47.662,48.511,67.909c-2.208,44.996-48.938,92.658-48.938,92.658
		s-28.508,39.306-9.662,57.774s46.674,11.481,60.246,0.903c13.569-10.575,13.817-27.17,15.799-32.794
		c4.883-13.857,14.252-21.375,14.252-21.375S416.921,244.239,381.514,154.678z"/>
	<circle fill="#143441" cx="241.158" cy="119.673" r="12.49"/>
	<path fill="#AD6327" d="M278.717,97.475c2.348-0.869,3.548-3.475,2.68-5.823c-0.036-0.095-0.073-0.187-0.114-0.278
		c-5.212-11.468-21.04-40.226-45.255-31.214c-27.94,10.397-23.845,39.891-21.337,46.633c1.139,3.058,2.836,7.622,37.935-0.281
		c2.46-0.551,4.006-2.992,3.457-5.452c-0.002-0.01-0.005-0.02-0.007-0.029c-0.566-2.407-2.953-3.918-5.371-3.396
		c-9.166,2.253-18.517,3.681-27.938,4.265c-1.228-5.976-3.598-25.793,16.424-33.245c16.87-6.278,29.486,16.991,33.83,26.48
		C274.017,97.285,276.497,98.304,278.717,97.475z"/>
	<g>
		<path fill="#AD6327" d="M155.292,220.44c1.586,1.958,4.46,2.258,6.419,0.67c0.167-0.135,0.324-0.282,0.471-0.44
			c11.813-11.768,15.86-29.251,10.423-45.014c-1.286-3.458-2.399-8.073-0.37-10.367c3.129-3.549,13.268-2.598,17.401-1.639
			l2.084-8.824c-1.891-0.446-18.726-4.122-26.283,4.462c-3.995,4.562-4.457,11.118-1.328,19.53
			c4.315,12.541,0.964,26.449-8.59,35.648C153.957,216.119,153.86,218.673,155.292,220.44L155.292,220.44z"/>
		<path fill="#AD6327" d="M139.362,178.167c2.457,0.478,4.837-1.125,5.314-3.583c0.043-0.218,0.068-0.439,0.079-0.663
			c0.175-4.534-0.619-9.994-4.941-12.187c-5.081-2.568-10.931,1.378-16.019,6.252c-1.786,1.753-1.812,4.623-0.059,6.41
			c0.049,0.048,0.099,0.097,0.148,0.144c1.778,1.635,4.521,1.602,6.259-0.075c1.573-1.624,3.37-3.012,5.337-4.125
			c0.155,1.05,0.207,2.112,0.156,3.172c-0.093,2.255,1.487,4.233,3.706,4.644L139.362,178.167z"/>
	</g>
	<path fill="#F9BB4B" d="M312.607,214.66c-4.836-29.249-17.695-43.876-18.244-44.486l-6.751,6.044l3.379-3.022l-3.389,3.011
		c0.115,0.13,11.687,13.484,16.058,39.935L312.607,214.66z"/>
	<path fill="#F9BB4B" d="M313.203,224.583l-9.047-0.574l-0.576,9.047l9.048,0.573L313.203,224.583z"/>
	<path fill="#AD6327" d="M281.078,105.662c0,0,5.334-11.659,2.171-20.155c-3.161-8.497,0.097-38.73,0.097-38.73
		s22.821-3.655,33.888,26.08c11.069,29.739-6.419,21.736-7.013,46.14L281.078,105.662z"/>
	<circle fill="#AD6327" cx="261.45" cy="444.959" r="36.759"/>
</g>
</svg>
