<?xml version="1.0" encoding="utf-8"?>
<!-- Generator: Adobe Illustrator 16.0.0, SVG Export Plug-In . SVG Version: 6.00 Build 0)  -->
<!DOCTYPE svg PUBLIC "-//W3C//DTD SVG 1.1//EN" "http://www.w3.org/Graphics/SVG/1.1/DTD/svg11.dtd">
<svg version="1.1" id="레이어_1" xmlns="http://www.w3.org/2000/svg" xmlns:xlink="http://www.w3.org/1999/xlink" x="0px"
	 y="0px" width="512px" height="502.71px" viewBox="0 0 512 502.71" enable-background="new 0 0 512 502.71" xml:space="preserve">
<g id="flat">
	<path fill="#D3843D" d="M168.659,248.743h175.823V502.71H168.659V248.743z"/>
	<path fill="#F9BB4B" d="M363.485,42.502L418.25,21.49c16.244-6.571,45.369,0.02,59.447,10.453l27.982,15.135
		c4.893,4.264,5.399,11.687,1.135,16.577c-1.254,1.439-2.838,2.551-4.62,3.239l-54.766,21.012L363.485,42.502z"/>
	<path fill="#D3843D" d="M327.661,79.962l7.054-36.347l-48.84-39.072h-58.608l-48.84,39.072l7.042,36.347H327.661z"/>
	<path fill="#AD6327" d="M205.005,70.194l-36.346-36.347h-19.536l-58.608,48.84v29.304h122.324L205.005,70.194z"/>
	<path fill="#AD6327" d="M310.07,111.992h112.557V82.688l-58.607-48.84h-19.536l-36.356,36.347L310.07,111.992z"/>
	<path fill="#D3843D" d="M173.767,111.992H90.515v48.84l19.536,9.768v19.536l26.638,35.516l47.745-6.212L173.767,111.992z"/>
	<path fill="#D3843D" d="M339.373,111.992h83.253v48.84L403.09,170.6v19.536l-26.646,35.516l-41.729-1.328L339.373,111.992z"/>
	<path fill="#143441" d="M145.597,151.063c-10.79,0-19.536-8.747-19.536-19.536c0-10.789,8.746-19.536,19.536-19.536
		c10.789,0,19.536,8.747,19.536,19.536C165.134,142.317,156.386,151.063,145.597,151.063z"/>
	<path fill="#143441" d="M367.819,151.063c-10.79,0-19.536-8.747-19.536-19.536c0-10.789,8.746-19.536,19.536-19.536
		c10.789,0,19.536,8.747,19.536,19.536C387.355,142.317,378.608,151.063,367.819,151.063z"/>
	<path fill="#AD6327" d="M296.567,110.359c0,0,65.461,18.925,126.511,1.221"/>
	<path fill="#AD6327" d="M90.515,111.992c0,0,65.46,14.042,126.51-3.663"/>
	<path fill="#F9BB4B" d="M189.484,323.282c19.201,14.896,42.786,23.031,67.086,23.141c38.711,0,76.259-21.959,87.971-48.986
		c4.777-11.604,16.023-19.234,28.571-19.39h0.566c10.789,0.064,19.588-8.629,19.653-19.419c0-0.038,0-0.077,0-0.117v-9.768
		c1.028-7.894-2.836-15.623-9.769-19.536l-39.071-19.536v-68.376c0-48.552-39.359-87.912-87.912-87.912
		c-48.552,0-87.912,39.359-87.912,87.912v68.376l-39.072,19.536c-6.933,3.914-10.796,11.643-9.768,19.536v9.768
		c0,10.789,8.748,19.536,19.536,19.536c2.19,0.026,4.371,0.289,6.505,0.782L189.484,323.282z"/>
	<path fill="#301A12" d="M275.023,278.047c-5.396,0-9.768-4.373-9.768-9.768v-66.07l15.804-31.609h8.616
		c2.697,0,4.884,2.187,4.884,4.884s-2.187,4.884-4.884,4.884h-4.884v19.536h4.884c13.487,0,24.42-10.933,24.42-24.42
		s-10.933-24.42-24.42-24.42h-20.689l-13.499,26.999l-13.5-26.999h-20.688c-13.487,0-24.42,10.933-24.42,24.42
		s10.933,24.42,24.42,24.42h4.884v-19.536h-4.884c-2.697,0-4.884-2.187-4.884-4.884s2.187-4.884,4.884-4.884h8.615l15.805,31.609
		v66.07c0,5.395-4.374,9.768-9.768,9.768l-48.84,8.547v19.536l48.84-8.547c7.232-0.026,14.195-2.741,19.536-7.619
		c5.339,4.878,12.303,7.593,19.536,7.619l48.84,8.547v-19.536L275.023,278.047z"/>
	<path fill="#F9BB4B" d="M150.693,34.588L93.161,18.976c-17.098-4.974-45.868,4.688-59.03,16.684L7.397,53.839
		C2.89,58.655,3.14,66.211,7.956,70.718c1.416,1.326,3.132,2.285,5.003,2.798l57.533,15.612L150.693,34.588z"/>
</g>
</svg>
