<?xml version="1.0" encoding="utf-8"?>
<!-- Generator: Adobe Illustrator 16.0.0, SVG Export Plug-In . SVG Version: 6.00 Build 0)  -->
<!DOCTYPE svg PUBLIC "-//W3C//DTD SVG 1.1//EN" "http://www.w3.org/Graphics/SVG/1.1/DTD/svg11.dtd">
<svg version="1.1" id="레이어_1" xmlns="http://www.w3.org/2000/svg" xmlns:xlink="http://www.w3.org/1999/xlink" x="0px"
	 y="0px" width="464.5px" height="512px" viewBox="0 0 464.5 512" enable-background="new 0 0 464.5 512" xml:space="preserve">
<g id="flat">
	<path fill="#D3843D" d="M439.24,260.157V181.95c0-43.448-43.448-86.896-104.275-86.896c-38.294,0.354-76.337,6.207-112.966,17.379
		h-30.414l-13.957-27.902c-6.937-13.889-23.821-19.524-37.709-12.585c-5.448,2.721-9.864,7.138-12.586,12.585l-13.955,27.902H91.654
		l-43.448,43.448v356.276h165.104V320.984c26.069-43.448,69.518-43.448,112.966,0s60.827,0,95.586,0s8.689-26.068,8.689-26.068
		C465.309,286.227,439.24,260.157,439.24,260.157z"/>
	<g>
		<path fill="#AD6327" d="M91.654,112.433c0,0-17.379-17.379-17.379-34.759S48.205,8.157,48.205,8.157S4.757,16.847,4.757,77.674
			s26.069,34.759,43.448,78.207L91.654,112.433z"/>
		<path fill="#AD6327" d="M163.926,344.595c-24.287-0.229-47.391-10.517-63.808-28.415c-3.409-3.378-3.435-8.881-0.057-12.29
			c0.158-0.159,0.321-0.312,0.491-0.458l0.087-0.078c3.347-2.925,8.379-2.785,11.558,0.322
			c22.894,25.134,60.183,30.977,89.668,14.051c3.804-2.022,8.517-0.906,11.009,2.607c2.775,3.844,1.906,9.211-1.938,11.985
			c-0.339,0.244-0.697,0.464-1.068,0.657C195.663,340.364,179.933,344.343,163.926,344.595L163.926,344.595z"/>
		<path fill="#AD6327" d="M413.171,277.536v-57.229l26.068-26.069c3.393-3.393,3.393-8.894,0-12.287
			c-3.393-3.392-8.894-3.392-12.287,0l-20.091,20.091l-14.391-28.78h-17.126c-11.464-0.26-21.305,8.108-22.89,19.465
			c-1.247,11.933,7.415,22.618,19.348,23.866c0.752,0.079,1.508,0.118,2.265,0.118h4.345V199.33h-4.345
			c-2.4,0-4.345-1.945-4.345-4.345s1.944-4.345,4.345-4.345h7.664l14.06,28.12v58.776c0,4.799-3.891,8.69-8.689,8.69h-52.138
			c-4.8,0-8.689,3.891-8.689,8.689s3.89,8.689,8.689,8.689h52.138c6.992-0.002,13.689-2.82,18.578-7.821l13.903,4.624
			c4.544,1.501,9.447-0.954,10.967-5.492c1.513-4.55-0.945-9.464-5.492-10.983l-12.166-4.041
			C413.005,279.1,413.171,278.345,413.171,277.536z"/>
		<path fill="#AD6327" d="M212.44,134.618l-16.398-32.699c5.242-13.275,8.144-27.357,8.578-41.624
			c0-26.069-43.449-43.448-43.449-43.448v44.596c-5.03-1.249-10.264-1.441-15.372-0.565c-11.74,2.362-21.681,10.119-26.825,20.934
			l-22.515,45.03c-2.148,4.293-0.408,9.514,3.885,11.661c4.292,2.147,9.514,0.409,11.661-3.884l23.098-46.203
			c3.734-7.517,11.883-11.776,20.186-10.55c6.6,1.152,12.222,5.454,15.059,11.523l17.275,34.55
			c-8.692-1.874-17.559-2.817-26.451-2.815c-10.427-0.303-20.814,1.402-30.596,5.023c-4.401,1.915-6.415,7.035-4.5,11.435
			c0.42,0.965,1.011,1.845,1.746,2.599c2.395,2.537,6.092,3.366,9.341,2.094c7.691-2.769,15.84-4.049,24.01-3.771
			c13.584-0.168,27.055,2.479,39.564,7.777c4.275,2.182,9.509,0.485,11.69-3.789C213.686,140.019,213.692,137.094,212.44,134.618
			L212.44,134.618z"/>
	</g>
	<path fill="#F9BB4B" d="M74.274,364.433h17.379v86.897H74.274V364.433z"/>
	<path fill="#F9BB4B" d="M74.274,468.709h17.379v17.379H74.274V468.709z"/>
	<circle fill="#143441" cx="175.245" cy="204.096" r="18.138"/>
	<path fill="#7A441C" d="M119.956,194.448l3.463-17.777c41.141,5.613,59.621-24.271,59.763-24.549l18.671,5.878
		C200.947,159.829,179.181,202.529,119.956,194.448z"/>
	<path fill="#88D9F2" d="M179.443,265.69c0,10.238-8.3,18.537-18.538,18.537c-10.238,0-18.538-8.299-18.538-18.537
		c0-10.239,18.538-37.944,18.538-37.944S179.443,255.452,179.443,265.69z"/>
	<path fill="#88D9F2" d="M204.556,307.098c0,6.171-5.002,11.173-11.173,11.173c-6.17,0-11.173-5.002-11.173-11.173
		s11.173-22.87,11.173-22.87S204.556,300.927,204.556,307.098z"/>
</g>
</svg>
