<?xml version="1.0" encoding="utf-8"?>
<!-- Generator: Adobe Illustrator 16.0.0, SVG Export Plug-In . SVG Version: 6.00 Build 0)  -->
<!DOCTYPE svg PUBLIC "-//W3C//DTD SVG 1.1//EN" "http://www.w3.org/Graphics/SVG/1.1/DTD/svg11.dtd">
<svg version="1.1" id="레이어_1" xmlns="http://www.w3.org/2000/svg" xmlns:xlink="http://www.w3.org/1999/xlink" x="0px"
	 y="0px" width="512px" height="512px" viewBox="0 0 512 512" enable-background="new 0 0 512 512" xml:space="preserve">
<g id="flat">
	<path fill="#55B56A" d="M429.793,294.759c21.088,17.061,33.763,42.41,34.759,69.518l17.38-43.448L508,329.517
		C508,268.689,438.484,260,438.484,260L429.793,294.759z"/>
	<path fill="#D3843D" d="M438.484,260v-78.207c0-43.448-43.448-86.896-104.276-86.896c-38.293,0.354-76.337,6.207-112.965,17.379
		h-30.414l-13.957-27.903c-6.937-13.889-23.821-19.523-37.709-12.585c-5.448,2.721-9.864,7.138-12.585,12.585l-13.956,27.903H90.897
		l-43.448,43.448V512h165.104V320.828c18.057-30.102,44.464-39.304,73.419-27.703c13.658-12.668,28.994-23.396,45.577-31.882
		l28.729,33.516c-9.943,10.219-19.275,21.016-27.947,32.334c38.557,32.56,55.892-6.265,88.774-6.265
		c34.759,0,8.689-26.069,8.689-26.069C464.552,286.068,438.484,260,438.484,260z"/>
	<path fill="#55B56A" d="M238.621,355.587l52.138-17.38l-8.69,60.828c0,0,43.448-69.519,78.208-104.276l-28.729-33.516
		C291.422,282.137,258.906,315.149,238.621,355.587z"/>
	<path fill="#66342E" d="M150.481,216.326c-10.868,0.024-21.435-3.564-30.039-10.202l10.427-13.903
		c28.406,21.271,66.467-16.19,66.849-16.572l12.287,12.288C208.502,189.44,181.156,216.326,150.481,216.326L150.481,216.326z"/>
	<g>
		<path fill="#AD6327" d="M90.897,112.276c0,0-17.379-17.379-17.379-34.758C73.518,60.138,47.448,8,47.448,8S4,16.69,4,77.518
			c0,60.827,26.069,34.758,43.448,78.207L90.897,112.276z"/>
		<path fill="#AD6327" d="M163.169,344.438c-24.288-0.233-47.393-10.521-63.817-28.415c-3.407-3.38-3.429-8.883-0.048-12.29
			c0.158-0.158,0.321-0.312,0.491-0.458l0.086-0.078c3.347-2.925,8.379-2.785,11.558,0.322c22.89,25.14,60.182,30.986,89.668,14.06
			c3.803-2.031,8.521-0.913,11.009,2.606c2.775,3.839,1.912,9.201-1.927,11.975c-0.341,0.246-0.698,0.466-1.07,0.66
			C194.914,340.21,179.18,344.189,163.169,344.438z"/>
		<path fill="#AD6327" d="M412.413,277.38v-57.231l26.07-26.068c3.392-3.394,3.392-8.894,0-12.288
			c-3.394-3.392-8.896-3.392-12.289,0l-20.09,20.091l-14.391-28.78h-17.126c-11.464-0.26-21.305,8.108-22.889,19.465
			c-1.248,11.933,7.414,22.618,19.346,23.866c0.753,0.078,1.51,0.118,2.266,0.118h4.345v-17.379h-4.345
			c-2.401,0-4.346-1.945-4.346-4.345s1.944-4.345,4.346-4.345h7.663l14.062,28.12v58.777c0,4.798-3.892,8.688-8.69,8.688h-22.071
			l-52.139-60.827h-21.376c-4.8,0-8.69,3.89-8.69,8.689c0,4.799,3.891,8.69,8.69,8.69h13.382l52.137,60.828h30.067
			c6.993-0.002,13.688-2.82,18.578-7.821l13.903,4.624c4.544,1.501,9.446-0.954,10.967-5.492c1.513-4.55-0.945-9.464-5.492-10.982
			l-12.166-4.042C412.248,278.943,412.413,278.188,412.413,277.38z"/>
		<path fill="#AD6327" d="M211.683,134.46l-16.398-32.699c5.243-13.275,8.144-27.357,8.577-41.623
			c0-26.069-43.448-43.448-43.448-43.448v44.595c-5.03-1.249-10.264-1.441-15.373-0.564c-11.741,2.362-21.681,10.119-26.825,20.933
			l-22.515,45.03c-2.148,4.293-0.409,9.514,3.884,11.661s9.514,0.409,11.661-3.884l23.098-46.203
			c3.734-7.517,11.883-11.776,20.186-10.549c6.6,1.152,12.222,5.453,15.059,11.523l17.275,34.549
			c-8.692-1.874-17.559-2.817-26.451-2.814c-10.427-0.304-20.814,1.401-30.596,5.022c-4.401,1.915-6.416,7.035-4.501,11.435
			c0.42,0.965,1.011,1.845,1.746,2.598c2.396,2.538,6.092,3.366,9.341,2.095c7.692-2.769,15.841-4.049,24.011-3.771
			c13.583-0.168,27.054,2.479,39.563,7.778c4.275,2.182,9.509,0.485,11.69-3.789C212.93,139.862,212.935,136.937,211.683,134.46
			L211.683,134.46z"/>
	</g>
	<path fill="#F9BB4B" d="M73.518,364.276h17.379v86.896H73.518V364.276z"/>
	<path fill="#F9BB4B" d="M73.518,468.552h17.379v17.38H73.518V468.552z"/>
</g>
</svg>
