<?xml version="1.0" encoding="utf-8"?>
<!-- Generator: Adobe Illustrator 16.0.0, SVG Export Plug-In . SVG Version: 6.00 Build 0)  -->
<!DOCTYPE svg PUBLIC "-//W3C//DTD SVG 1.1//EN" "http://www.w3.org/Graphics/SVG/1.1/DTD/svg11.dtd">
<svg version="1.1" id="레이어_1" xmlns="http://www.w3.org/2000/svg" xmlns:xlink="http://www.w3.org/1999/xlink" x="0px"
	 y="0px" width="700px" height="700px" viewBox="0 0 700 700" enable-background="new 0 0 700 700" xml:space="preserve">
<rect fill="#E6E6E6" width="700" height="700"/>
<g>
	<g>
		<g>
			<g>
				<g enable-background="new    ">
					<defs>
						<polygon id="SVGID_1_" enable-background="new    " points="143.639,504.935 147.311,66.396 558.945,147.187 555.273,585.726 
													"/>
					</defs>
					<clipPath id="SVGID_2_">
						<use xlink:href="#SVGID_1_"  overflow="visible"/>
					</clipPath>
					<g clip-path="url(#SVGID_2_)">
						<g>
							<g>
								<g>
									<path fill="#7B60F1" d="M446.704,125.157L234.208,83.451l-87.511,56.282l83.944,369.679l235.334,58.787
										c36.41,7.146,65.481-2.536,82.629-29.187c13.579-21.094,6.574-299.263,6.574-299.263
										c0.254-30.296-7.938-55.037-24.551-74.227C514.006,146.331,486.039,132.878,446.704,125.157"/>
								</g>
							</g>
						</g>
					</g>
				</g>
			</g>
		</g>
		<g>
			<g>
				<g enable-background="new    ">
					<defs>
						<polygon id="SVGID_3_" enable-background="new    " points="174.367,536.604 178.04,98.065 530.814,167.304 527.142,605.843 
													"/>
					</defs>
					<clipPath id="SVGID_4_">
						<use xlink:href="#SVGID_3_"  overflow="visible"/>
					</clipPath>
					<g clip-path="url(#SVGID_4_)">
						<g>
							<g>
								<g>
									<path fill="#FFFFFF" d="M418.568,145.273L243.076,110.83l-65.485,40.82l24.923,377.88l235.334,58.787
										c36.402,7.145,65.473-2.529,82.629-29.178c13.579-21.094,6.567-299.274,6.567-299.274
										c0.253-30.295-7.931-55.035-24.545-74.225C485.878,166.449,457.911,152.995,418.568,145.273"/>
								</g>
							</g>
						</g>
					</g>
				</g>
			</g>
		</g>
		<polyline fill="#EDC156" points="241.118,151.023 247.821,164.668 240.163,157.367 		"/>
		<path fill="#FFFFFF" d="M242.895,110.242c-3.149,0.142-61.947,4.51-81.354,62.149"/>
		<g>
			<g>
				<g enable-background="new    ">
					<defs>
						<polygon id="SVGID_5_" enable-background="new    " points="143.155,568.764 146.745,140.016 481.798,205.777 
							478.207,634.523 						"/>
					</defs>
					<clipPath id="SVGID_6_">
						<use xlink:href="#SVGID_5_"  overflow="visible"/>
					</clipPath>
					<g clip-path="url(#SVGID_6_)">
						<g>
							<g>
								<g>
									<path fill="#7B60F1" d="M272.449,493.372l0.589-70.324l50.313,9.875c17.482,3.431,26.125,16.779,25.931,40.026
										c-0.198,23.626-9.394,33.659-27.587,30.089L272.449,493.372 M273.876,323.011l0.536-64.026l40.678,7.983
										c15.696,3.081,23.462,15.301,23.284,36.641c-0.179,21.348-8.487,30.396-24.887,27.177L273.876,323.011 M354.949,180.88
										l-208.204-40.864l-3.59,428.748l230.681,45.275c35.684,7.004,62.081,1.794,79.207-15.662
										c17.119-17.439,25.83-43.311,26.117-77.607c0.552-65.935-25.008-108.736-76.663-128.429l0.034-3.993
										c17.882-1.834,32.064-10.024,42.557-24.572c10.484-14.556,15.86-37.26,16.119-68.129
										c0.255-30.489-7.77-55.35-24.035-74.573C420.891,201.847,393.485,188.444,354.949,180.88"/>
								</g>
							</g>
						</g>
					</g>
				</g>
			</g>
		</g>
		<g>
			<g>
				<g enable-background="new    ">
					<defs>
						<polygon id="SVGID_7_" enable-background="new    " points="184.198,264.772 185.181,147.422 243.626,158.894 
							242.644,276.244 						"/>
					</defs>
					<clipPath id="SVGID_8_">
						<use xlink:href="#SVGID_7_"  overflow="visible"/>
					</clipPath>
					<g clip-path="url(#SVGID_8_)">
						<g>
							<g>
								<g>
									<polyline fill="#683EC9" points="243.626,158.894 185.181,147.422 184.198,264.772 213.624,238.216 242.644,276.244 
										243.626,158.894 									"/>
								</g>
							</g>
						</g>
					</g>
				</g>
			</g>
		</g>
		<g>
			<g>
				<g enable-background="new    ">
					<defs>
						<polygon id="SVGID_9_" enable-background="new    " points="181.304,262.667 182.334,139.628 240.779,151.099 
							239.749,274.138 						"/>
					</defs>
					<clipPath id="SVGID_10_">
						<use xlink:href="#SVGID_9_"  overflow="visible"/>
					</clipPath>
					<g clip-path="url(#SVGID_10_)">
						<g>
							<g>
								<g>
									<polyline fill="#FFDC7C" points="240.779,151.099 182.334,139.628 181.304,262.667 210.728,236.279 239.749,274.138 
										240.779,151.099 									"/>
								</g>
							</g>
						</g>
					</g>
				</g>
			</g>
		</g>
		<path fill="#7B60F1" d="M234.583,83.008c0,0-60.749,12.576-87.286,56.564"/>
	</g>
</g>
</svg>
