<?xml version="1.0" encoding="utf-8"?>
<!-- Generator: Adobe Illustrator 16.0.0, SVG Export Plug-In . SVG Version: 6.00 Build 0)  -->
<!DOCTYPE svg PUBLIC "-//W3C//DTD SVG 1.1//EN" "http://www.w3.org/Graphics/SVG/1.1/DTD/svg11.dtd">
<svg version="1.1" id="레이어_1" xmlns="http://www.w3.org/2000/svg" xmlns:xlink="http://www.w3.org/1999/xlink" x="0px"
	 y="0px" width="700px" height="700px" viewBox="0 0 700 700" enable-background="new 0 0 700 700" xml:space="preserve">
<rect fill="#E6E6E6" width="700" height="700"/>
<g>
	<g>
		<g>
			<g>
				<g enable-background="new    ">
					<defs>
						<polygon id="SVGID_1_" enable-background="new    " points="142.972,504.935 146.644,66.396 558.278,147.187 554.606,585.726 
													"/>
					</defs>
					<clipPath id="SVGID_2_">
						<use xlink:href="#SVGID_1_"  overflow="visible"/>
					</clipPath>
					<g clip-path="url(#SVGID_2_)">
						<g>
							<g>
								<g>
									<path fill="#7540EE" d="M446.037,125.157L233.541,83.451l-87.511,56.282l83.944,369.679l235.333,58.787
										c36.411,7.146,65.482-2.536,82.63-29.187c13.579-21.094,6.574-299.263,6.574-299.263
										c0.254-30.296-7.938-55.037-24.551-74.227C513.339,146.332,485.371,132.877,446.037,125.157"/>
								</g>
							</g>
						</g>
					</g>
				</g>
			</g>
		</g>
		<g>
			<g>
				<g enable-background="new    ">
					<defs>
						<polygon id="SVGID_3_" enable-background="new    " points="173.7,536.604 177.373,98.065 530.147,167.304 526.475,605.843 
													"/>
					</defs>
					<clipPath id="SVGID_4_">
						<use xlink:href="#SVGID_3_"  overflow="visible"/>
					</clipPath>
					<g clip-path="url(#SVGID_4_)">
						<g>
							<g>
								<g>
									<path fill="#FFFFFF" d="M417.901,145.273L242.409,110.83l-65.485,40.82l24.923,377.88l235.334,58.787
										c36.402,7.145,65.473-2.529,82.629-29.178c13.579-21.094,6.567-299.274,6.567-299.274
										c0.253-30.295-7.931-55.035-24.544-74.225C485.211,166.449,457.244,152.995,417.901,145.273"/>
								</g>
							</g>
						</g>
					</g>
				</g>
			</g>
		</g>
		<polyline fill="#EDC156" points="240.451,151.022 247.154,164.668 239.496,157.366 		"/>
		<path fill="#FFFFFF" d="M242.228,110.243c-3.149,0.141-61.947,4.509-81.354,62.148"/>
		<g>
			<g>
				<g enable-background="new    ">
					<defs>
						<polygon id="SVGID_5_" enable-background="new    " points="142.488,568.764 146.078,140.016 481.131,205.777 477.54,634.523 
													"/>
					</defs>
					<clipPath id="SVGID_6_">
						<use xlink:href="#SVGID_5_"  overflow="visible"/>
					</clipPath>
					<g clip-path="url(#SVGID_6_)">
						<g>
							<g>
								<g>
									<path fill="#7540EE" d="M271.782,493.372l0.589-70.324l50.313,9.875c17.482,3.431,26.125,16.778,25.931,40.026
										c-0.198,23.626-9.394,33.659-27.587,30.088L271.782,493.372 M273.209,323.011l0.536-64.026l40.678,7.983
										c15.696,3.081,23.462,15.301,23.284,36.641c-0.179,21.348-8.487,30.396-24.887,27.177L273.209,323.011 M354.282,180.88
										l-208.204-40.864l-3.59,428.748l230.681,45.275c35.684,7.004,62.081,1.794,79.207-15.662
										c17.118-17.439,25.83-43.311,26.117-77.607c0.552-65.935-25.008-108.736-76.663-128.429l0.033-3.993
										c17.883-1.834,32.065-10.024,42.558-24.572c10.484-14.556,15.86-37.26,16.119-68.129
										c0.255-30.489-7.77-55.35-24.035-74.573C420.224,201.846,392.818,188.444,354.282,180.88"/>
								</g>
							</g>
						</g>
					</g>
				</g>
			</g>
		</g>
		<g>
			<g>
				<g enable-background="new    ">
					<defs>
						<polygon id="SVGID_7_" enable-background="new    " points="183.531,264.772 184.514,147.422 242.959,158.894 
							241.977,276.244 						"/>
					</defs>
					<clipPath id="SVGID_8_">
						<use xlink:href="#SVGID_7_"  overflow="visible"/>
					</clipPath>
					<g clip-path="url(#SVGID_8_)">
						<g>
							<g>
								<g>
									<polyline fill="#683EC9" points="242.959,158.894 184.514,147.422 183.531,264.772 212.957,238.216 241.977,276.244 
										242.959,158.894 									"/>
								</g>
							</g>
						</g>
					</g>
				</g>
			</g>
		</g>
		<g>
			<g>
				<g enable-background="new    ">
					<defs>
						<polygon id="SVGID_9_" enable-background="new    " points="180.637,262.667 181.667,139.628 240.112,151.099 
							239.082,274.138 						"/>
					</defs>
					<clipPath id="SVGID_10_">
						<use xlink:href="#SVGID_9_"  overflow="visible"/>
					</clipPath>
					<g clip-path="url(#SVGID_10_)">
						<g>
							<g>
								<g>
									<polyline fill="#FFDC7C" points="240.112,151.099 181.667,139.628 180.637,262.667 210.061,236.279 239.082,274.138 
										240.112,151.099 									"/>
								</g>
							</g>
						</g>
					</g>
				</g>
			</g>
		</g>
		<path fill="#7540EE" d="M233.916,83.009c0,0-60.749,12.574-87.286,56.563"/>
	</g>
</g>
</svg>
