<?xml version="1.0" encoding="utf-8"?>
<!-- Generator: Adobe Illustrator 16.0.0, SVG Export Plug-In . SVG Version: 6.00 Build 0)  -->
<!DOCTYPE svg PUBLIC "-//W3C//DTD SVG 1.1//EN" "http://www.w3.org/Graphics/SVG/1.1/DTD/svg11.dtd">
<svg version="1.1" id="레이어_1" xmlns="http://www.w3.org/2000/svg" xmlns:xlink="http://www.w3.org/1999/xlink" x="0px"
	 y="0px" width="700px" height="700px" viewBox="0 0 700 700" enable-background="new 0 0 700 700" xml:space="preserve">
<g>
	<circle fill="#E6E6E6" cx="350.235" cy="350.902" r="350"/>
	<g>
		<g>
			<g>
				<g enable-background="new    ">
					<defs>
						<polygon id="SVGID_1_" enable-background="new    " points="142.639,505.93 146.311,67.398 557.945,148.189 554.273,586.721 
													"/>
					</defs>
					<clipPath id="SVGID_2_">
						<use xlink:href="#SVGID_1_"  overflow="visible"/>
					</clipPath>
					<g clip-path="url(#SVGID_2_)">
						<g>
							<g>
								<g>
									<path fill="#7B60F1" d="M445.704,126.16L233.208,84.454l-87.511,56.283l83.944,369.679l235.334,58.778
										c36.41,7.146,65.481-2.527,82.629-29.178c13.579-21.094,6.574-299.271,6.574-299.271
										c0.254-30.287-7.938-55.037-24.552-74.218C513.006,147.334,485.039,133.88,445.704,126.16"/>
								</g>
							</g>
						</g>
					</g>
				</g>
			</g>
		</g>
		<g>
			<g>
				<g enable-background="new    ">
					<defs>
						<polygon id="SVGID_3_" enable-background="new    " points="173.367,537.607 177.04,99.068 529.814,168.307 526.142,606.846 
													"/>
					</defs>
					<clipPath id="SVGID_4_">
						<use xlink:href="#SVGID_3_"  overflow="visible"/>
					</clipPath>
					<g clip-path="url(#SVGID_4_)">
						<g>
							<g>
								<g>
									<path fill="#FFFFFF" d="M417.568,146.276l-175.493-34.444l-65.485,40.812l24.923,377.889l235.334,58.787
										c36.402,7.145,65.473-2.538,82.629-29.178c13.579-21.103,6.567-299.274,6.567-299.274
										c0.253-30.295-7.931-55.035-24.545-74.225C484.878,167.452,456.911,153.998,417.568,146.276"/>
								</g>
							</g>
						</g>
					</g>
				</g>
			</g>
		</g>
		<polyline fill="#EDC156" points="240.118,152.023 246.821,165.668 239.163,158.367 		"/>
		<path fill="#FFFFFF" d="M241.895,111.242c-3.149,0.142-61.947,4.51-81.354,62.149"/>
		<g>
			<g>
				<g enable-background="new    ">
					<defs>
						<polygon id="SVGID_5_" enable-background="new    " points="142.155,569.767 145.745,141.019 480.798,206.78 477.207,635.526 
													"/>
					</defs>
					<clipPath id="SVGID_6_">
						<use xlink:href="#SVGID_5_"  overflow="visible"/>
					</clipPath>
					<g clip-path="url(#SVGID_6_)">
						<g>
							<g>
								<g>
									<path fill="#7B60F1" d="M271.449,494.367l0.589-70.316l50.313,9.875c17.482,3.431,26.125,16.779,25.931,40.018
										c-0.198,23.635-9.394,33.66-27.586,30.089L271.449,494.367 M272.876,324.005l0.536-64.018l40.678,7.983
										c15.696,3.081,23.462,15.292,23.284,36.632c-0.179,21.348-8.487,30.396-24.887,27.177L272.876,324.005 M353.949,181.883
										l-208.205-40.864l-3.59,428.748l230.681,45.275c35.684,7.004,62.081,1.784,79.207-15.662
										c17.119-17.44,25.83-43.311,26.117-77.615c0.552-65.927-25.008-108.737-76.663-128.421l0.034-4.002
										c17.882-1.825,32.064-10.025,42.557-24.571c10.484-14.548,15.86-37.252,16.119-68.122
										c0.255-30.489-7.77-55.35-24.035-74.573C419.891,202.85,392.485,189.447,353.949,181.883"/>
								</g>
							</g>
						</g>
					</g>
				</g>
			</g>
		</g>
		<g>
			<g>
				<g enable-background="new    ">
					<defs>
						<polygon id="SVGID_7_" enable-background="new    " points="183.198,265.775 184.181,148.425 242.626,159.896 
							241.644,277.247 						"/>
					</defs>
					<clipPath id="SVGID_8_">
						<use xlink:href="#SVGID_7_"  overflow="visible"/>
					</clipPath>
					<g clip-path="url(#SVGID_8_)">
						<g>
							<g>
								<g>
									<polyline fill="#683EC9" points="242.626,159.896 184.181,148.425 183.198,265.775 212.624,239.219 241.644,277.247 
										242.626,159.896 									"/>
								</g>
							</g>
						</g>
					</g>
				</g>
			</g>
		</g>
		<g>
			<g>
				<g enable-background="new    ">
					<defs>
						<polygon id="SVGID_9_" enable-background="new    " points="180.304,263.67 181.334,140.631 239.779,152.102 238.749,275.141 
													"/>
					</defs>
					<clipPath id="SVGID_10_">
						<use xlink:href="#SVGID_9_"  overflow="visible"/>
					</clipPath>
					<g clip-path="url(#SVGID_10_)">
						<g>
							<g>
								<g>
									<polyline fill="#FFDC7C" points="239.779,152.102 181.334,140.631 180.304,263.67 209.728,237.282 238.749,275.141 
										239.779,152.102 									"/>
								</g>
							</g>
						</g>
					</g>
				</g>
			</g>
		</g>
		<path fill="#7B60F1" d="M233.583,84.008c0,0-60.749,12.576-87.286,56.564"/>
	</g>
</g>
</svg>
