<?xml version="1.0" encoding="utf-8"?>
<!-- Generator: Adobe Illustrator 16.0.0, SVG Export Plug-In . SVG Version: 6.00 Build 0)  -->
<!DOCTYPE svg PUBLIC "-//W3C//DTD SVG 1.1//EN" "http://www.w3.org/Graphics/SVG/1.1/DTD/svg11.dtd">
<svg version="1.1" id="레이어_1" xmlns="http://www.w3.org/2000/svg" xmlns:xlink="http://www.w3.org/1999/xlink" x="0px"
	 y="0px" width="700px" height="700px" viewBox="0 0 700 700" enable-background="new 0 0 700 700" xml:space="preserve">
<rect fill="#7540EE" width="700" height="700"/>
<g>
	<g>
		<g>
			<g enable-background="new    ">
				<defs>
					<polygon id="SVGID_1_" enable-background="new    " points="142.972,504.935 146.644,66.396 558.278,147.187 554.606,585.726 
											"/>
				</defs>
				<clipPath id="SVGID_2_">
					<use xlink:href="#SVGID_1_"  overflow="visible"/>
				</clipPath>
				<g clip-path="url(#SVGID_2_)">
					<g>
						<g>
							<g>
								<path fill="#FFFFFF" d="M446.037,125.157L233.541,83.451l-87.511,56.282l83.944,369.679l235.333,58.787
									c36.411,7.146,65.482-2.536,82.63-29.187c13.579-21.094,6.574-299.263,6.574-299.263
									c0.254-30.296-7.938-55.037-24.551-74.227C513.339,146.332,485.371,132.877,446.037,125.157"/>
							</g>
						</g>
					</g>
				</g>
			</g>
		</g>
	</g>
	<g>
		<g>
			<g enable-background="new    ">
				<defs>
					<polygon id="SVGID_3_" enable-background="new    " points="173.7,536.604 177.373,98.065 530.147,167.304 526.475,605.843 
											"/>
				</defs>
				<clipPath id="SVGID_4_">
					<use xlink:href="#SVGID_3_"  overflow="visible"/>
				</clipPath>
				<g clip-path="url(#SVGID_4_)">
					<g>
						<g>
							<g>
								<path fill="#7540EE" d="M417.901,145.273L242.409,110.83l-65.485,40.82l24.923,377.88l235.334,58.787
									c36.402,7.145,65.473-2.529,82.629-29.178c13.579-21.094,6.567-299.274,6.567-299.274
									c0.253-30.295-7.931-55.035-24.544-74.225C485.211,166.449,457.244,152.995,417.901,145.273"/>
							</g>
						</g>
					</g>
				</g>
			</g>
		</g>
	</g>
	<polyline fill="#EDC156" points="240.451,151.022 247.154,164.669 239.496,157.366 	"/>
	<path fill="#7540EE" d="M242.228,110.244c-3.149,0.141-61.947,4.509-81.354,62.147"/>
	<g>
		<g>
			<g enable-background="new    ">
				<defs>
					<polygon id="SVGID_5_" enable-background="new    " points="142.488,568.771 146.078,140.017 481.131,205.777 477.54,634.532 
											"/>
				</defs>
				<clipPath id="SVGID_6_">
					<use xlink:href="#SVGID_5_"  overflow="visible"/>
				</clipPath>
				<g clip-path="url(#SVGID_6_)">
					<g>
						<g>
							<g>
								<path fill="#FFFFFF" d="M271.782,493.373l0.589-70.325l50.313,9.875c17.482,3.432,26.125,16.779,25.931,40.026
									c-0.198,23.627-9.394,33.659-27.587,30.089L271.782,493.373 M273.209,323.011l0.536-64.026l40.678,7.984
									c15.696,3.081,23.462,15.301,23.284,36.64c-0.179,21.349-8.487,30.396-24.887,27.177L273.209,323.011 M354.282,180.881
									l-208.204-40.864l-3.59,428.755l230.681,45.276c35.684,7.003,62.081,1.785,79.207-15.67
									c17.118-17.44,25.83-43.311,26.117-77.608c0.552-65.934-25.008-108.736-76.663-128.429l0.033-3.993
									c17.883-1.834,32.065-10.024,42.558-24.571c10.484-14.557,15.86-37.26,16.119-68.13c0.255-30.49-7.77-55.35-24.035-74.573
									C420.224,201.847,392.818,188.444,354.282,180.881"/>
							</g>
						</g>
					</g>
				</g>
			</g>
		</g>
	</g>
	<g>
		<g>
			<g enable-background="new    ">
				<defs>
					<polygon id="SVGID_7_" enable-background="new    " points="183.531,264.772 184.514,147.422 242.959,158.894 241.977,276.244 
											"/>
				</defs>
				<clipPath id="SVGID_8_">
					<use xlink:href="#SVGID_7_"  overflow="visible"/>
				</clipPath>
				<g clip-path="url(#SVGID_8_)">
					<g>
						<g>
							<g>
								<polyline fill="#E6E6E6" points="242.959,158.894 184.514,147.422 183.531,264.772 212.957,238.216 241.977,276.244 
									242.959,158.894 								"/>
							</g>
						</g>
					</g>
				</g>
			</g>
		</g>
	</g>
	<g>
		<g>
			<g enable-background="new    ">
				<defs>
					<polygon id="SVGID_9_" enable-background="new    " points="180.637,262.667 181.667,139.628 240.112,151.099 239.082,274.138 
											"/>
				</defs>
				<clipPath id="SVGID_10_">
					<use xlink:href="#SVGID_9_"  overflow="visible"/>
				</clipPath>
				<g clip-path="url(#SVGID_10_)">
					<g>
						<g>
							<g>
								<polyline fill="#FFDC7C" points="240.112,151.099 181.667,139.628 180.637,262.667 210.061,236.279 239.082,274.138 
									240.112,151.099 								"/>
							</g>
						</g>
					</g>
				</g>
			</g>
		</g>
	</g>
	<path fill="#FFFFFF" d="M233.916,83.009c0,0-60.749,12.573-87.286,56.563"/>
</g>
</svg>
