<?xml version="1.0" encoding="utf-8"?>
<!-- Generator: Adobe Illustrator 16.0.0, SVG Export Plug-In . SVG Version: 6.00 Build 0)  -->
<!DOCTYPE svg PUBLIC "-//W3C//DTD SVG 1.1//EN" "http://www.w3.org/Graphics/SVG/1.1/DTD/svg11.dtd">
<svg version="1.1" id="레이어_1" xmlns="http://www.w3.org/2000/svg" xmlns:xlink="http://www.w3.org/1999/xlink" x="0px"
	 y="0px" width="700px" height="700px" viewBox="0 0 700 700" enable-background="new 0 0 700 700" xml:space="preserve">
<rect fill="#683EC9" width="700" height="700"/>
<g>
	<g>
		<g>
			<g enable-background="new    ">
				<defs>
					<polygon id="SVGID_1_" enable-background="new    " points="142.972,505.93 146.644,67.398 558.278,148.189 554.606,586.721 
											"/>
				</defs>
				<clipPath id="SVGID_2_">
					<use xlink:href="#SVGID_1_"  overflow="visible"/>
				</clipPath>
				<g clip-path="url(#SVGID_2_)">
					<g>
						<g>
							<g>
								<path fill="#FFDC7C" d="M446.037,126.16L233.541,84.454l-87.511,56.283l83.944,369.679l235.333,58.778
									c36.411,7.146,65.482-2.527,82.63-29.178c13.579-21.094,6.574-299.271,6.574-299.271
									c0.254-30.295-7.938-55.037-24.551-74.218C513.339,147.334,485.371,133.88,446.037,126.16"/>
							</g>
						</g>
					</g>
				</g>
			</g>
		</g>
	</g>
	<g>
		<g>
			<g enable-background="new    ">
				<defs>
					<polygon id="SVGID_3_" enable-background="new    " points="173.7,537.607 177.373,99.068 530.147,168.307 526.475,606.846 
											"/>
				</defs>
				<clipPath id="SVGID_4_">
					<use xlink:href="#SVGID_3_"  overflow="visible"/>
				</clipPath>
				<g clip-path="url(#SVGID_4_)">
					<g>
						<g>
							<g>
								<path fill="#683EC9" d="M417.901,146.276l-175.493-34.444l-65.485,40.812l24.923,377.889l235.334,58.787
									c36.402,7.145,65.473-2.538,82.629-29.178c13.579-21.103,6.567-299.274,6.567-299.274
									c0.253-30.295-7.931-55.035-24.544-74.225C485.211,167.452,457.244,153.998,417.901,146.276"/>
							</g>
						</g>
					</g>
				</g>
			</g>
		</g>
	</g>
	<polyline fill="#5EB6D1" points="240.451,152.022 247.154,165.669 239.496,158.366 	"/>
	<path fill="#683EC9" d="M242.228,111.244c-3.149,0.141-61.947,4.509-81.354,62.147"/>
	<g>
		<g>
			<g enable-background="new    ">
				<defs>
					<polygon id="SVGID_5_" enable-background="new    " points="142.488,569.767 146.078,141.019 481.131,206.78 477.54,635.526 
											"/>
				</defs>
				<clipPath id="SVGID_6_">
					<use xlink:href="#SVGID_5_"  overflow="visible"/>
				</clipPath>
				<g clip-path="url(#SVGID_6_)">
					<g>
						<g>
							<g>
								<path fill="#FFDC7C" d="M271.782,494.367l0.589-70.316l50.313,9.875c17.482,3.431,26.125,16.779,25.931,40.018
									c-0.198,23.635-9.394,33.66-27.587,30.089L271.782,494.367 M273.209,324.014l0.536-64.027l40.678,7.983
									c15.696,3.081,23.463,15.292,23.284,36.632c-0.179,21.348-8.487,30.405-24.887,27.186L273.209,324.014 M354.282,181.883
									l-208.205-40.864l-3.59,428.748l230.681,45.275c35.684,7.004,62.081,1.784,79.207-15.662
									c17.118-17.44,25.829-43.311,26.117-77.607c0.552-65.935-25.008-108.745-76.663-128.429l0.033-4.002
									c17.883-1.825,32.065-10.025,42.558-24.571c10.484-14.548,15.86-37.252,16.119-68.122
									c0.255-30.489-7.77-55.35-24.035-74.573C420.224,202.85,392.818,189.447,354.282,181.883"/>
							</g>
						</g>
					</g>
				</g>
			</g>
		</g>
	</g>
	<g>
		<g>
			<g enable-background="new    ">
				<defs>
					<polygon id="SVGID_7_" enable-background="new    " points="183.531,265.775 184.514,148.417 242.959,159.888 241.977,277.246 
											"/>
				</defs>
				<clipPath id="SVGID_8_">
					<use xlink:href="#SVGID_7_"  overflow="visible"/>
				</clipPath>
				<g clip-path="url(#SVGID_8_)">
					<g>
						<g>
							<g>
								<polyline fill="#F9C646" points="242.959,159.888 184.514,148.417 183.531,265.775 212.957,239.218 241.977,277.246 
									242.959,159.888 								"/>
							</g>
						</g>
					</g>
				</g>
			</g>
		</g>
	</g>
	<g>
		<g>
			<g enable-background="new    ">
				<defs>
					<polygon id="SVGID_9_" enable-background="new    " points="180.637,263.67 181.667,140.631 240.112,152.102 239.082,275.141 
											"/>
				</defs>
				<clipPath id="SVGID_10_">
					<use xlink:href="#SVGID_9_"  overflow="visible"/>
				</clipPath>
				<g clip-path="url(#SVGID_10_)">
					<g>
						<g>
							<g>
								<polyline fill="#97DFFC" points="240.112,152.102 181.667,140.631 180.637,263.67 210.061,237.282 239.082,275.141 
									240.112,152.102 								"/>
							</g>
						</g>
					</g>
				</g>
			</g>
		</g>
	</g>
	<path fill="#FFDC7C" d="M233.916,84.009c0,0-60.749,12.573-87.286,56.563"/>
</g>
</svg>
