<?xml version="1.0" encoding="utf-8"?>
<!-- Generator: Adobe Illustrator 16.0.0, SVG Export Plug-In . SVG Version: 6.00 Build 0)  -->
<!DOCTYPE svg PUBLIC "-//W3C//DTD SVG 1.1//EN" "http://www.w3.org/Graphics/SVG/1.1/DTD/svg11.dtd">
<svg version="1.1" id="레이어_1" xmlns="http://www.w3.org/2000/svg" xmlns:xlink="http://www.w3.org/1999/xlink" x="0px"
	 y="0px" width="77.922px" height="95.855px" viewBox="0 0 77.922 95.855" enable-background="new 0 0 77.922 95.855"
	 xml:space="preserve">
<g>
	<g>
		<defs>
			<path id="SVGID_1_" d="M75,53.024V13.772C75,7.587,71.678,3,66.164,3h-53.33C7.319,3,3,7.587,3,13.772v40.091l-0.416,1.838
				c0,22.705,24.427,37.471,36.45,37.471C52.232,93.172,75,78.406,75,55.701C75,54.802,75,53.909,75,53.024z"/>
		</defs>
		<clipPath id="SVGID_2_">
			<use xlink:href="#SVGID_1_"  overflow="visible"/>
		</clipPath>
		<rect x="-12.022" y="0.139" clip-path="url(#SVGID_2_)" fill="#3BA1E1" width="97.071" height="99.498"/>
		<g clip-path="url(#SVGID_2_)">
			<path fill="#1D7DB9" d="M42.275,94.79c21.25-2.229,38.135-19.113,40.363-40.362L52.618,24.407l-3.435,18.785l-2.987-2.986
				L22.346,74.86L42.275,94.79z"/>
			<polygon fill="#94DBFF" points="22.346,74.86 37.482,64.77 52.618,74.86 52.618,24.407 22.346,24.407 			"/>
			<polygon fill="#5BB0E6" points="37.38,24.407 37.38,64.838 37.482,64.77 52.618,74.86 52.618,24.407 			"/>
			<rect x="22.346" y="24.407" fill="#D0EFFC" width="30.272" height="7.492"/>
			<rect x="37.381" y="24.407" fill="#94DBFF" width="15.238" height="7.492"/>
		</g>
		<rect x="-4.135" y="3.172" clip-path="url(#SVGID_2_)" fill="#212121" width="83.118" height="13.347"/>
	</g>
	<path fill="none" stroke="#212121" stroke-width="6" stroke-miterlimit="10" d="M75.342,53.024V13.772
		c0-6.185-3.665-10.6-9.18-10.6H12.819c-5.516,0-10.194,4.415-10.194,10.6L2.539,54.438v1.263c0,22.705,27.503,36.864,36.643,36.864
		c11.226,0,36.16-14.159,36.16-36.864C75.342,54.802,75.342,53.909,75.342,53.024z"/>
</g>
</svg>
