<?xml version="1.0" encoding="utf-8"?>
<!-- Generator: Adobe Illustrator 16.0.0, SVG Export Plug-In . SVG Version: 6.00 Build 0)  -->
<!DOCTYPE svg PUBLIC "-//W3C//DTD SVG 1.1//EN" "http://www.w3.org/Graphics/SVG/1.1/DTD/svg11.dtd">
<svg version="1.1" id="레이어_1" xmlns="http://www.w3.org/2000/svg" xmlns:xlink="http://www.w3.org/1999/xlink" x="0px"
	 y="0px" width="800px" height="800px" viewBox="0 0 800 800" enable-background="new 0 0 800 800" xml:space="preserve">
<g>
	<g>
		<g>
			<g enable-background="new    ">
				<defs>
					<polygon id="SVGID_1_" enable-background="new    " points="86.106,630.688 91.573,-22.139 704.354,98.131 698.888,750.959 
											"/>
				</defs>
				<clipPath id="SVGID_2_">
					<use xlink:href="#SVGID_1_"  overflow="visible"/>
				</clipPath>
				<g clip-path="url(#SVGID_2_)">
					<g>
						<g>
							<g>
								<path fill="#7B60F1" d="M537.255,65.335L220.926,3.249L90.658,87.031l124.958,550.331l350.331,87.505
									c54.209,10.639,97.48-3.765,123.01-43.438c20.221-31.399,9.787-445.515,9.787-445.515
									c0.378-45.093-11.813-81.932-36.543-110.485C637.457,96.855,595.812,76.828,537.255,65.335"/>
							</g>
						</g>
					</g>
				</g>
			</g>
		</g>
	</g>
	<g>
		<g>
			<g enable-background="new    ">
				<defs>
					<polygon id="SVGID_3_" enable-background="new    " points="131.857,677.844 137.324,25.007 662.481,128.079 657.015,780.916 
											"/>
				</defs>
				<clipPath id="SVGID_4_">
					<use xlink:href="#SVGID_3_"  overflow="visible"/>
				</clipPath>
				<g clip-path="url(#SVGID_4_)">
					<g>
						<g>
							<g>
								<path fill="#FFFFFF" d="M495.391,95.285L234.131,44.007l-97.476,60.761l37.087,562.543l350.331,87.513
									c54.201,10.638,97.481-3.773,123.012-43.438c20.22-31.408,9.786-445.516,9.786-445.516
									c0.378-45.093-11.813-81.932-36.543-110.494C595.585,126.804,553.946,106.777,495.391,95.285"/>
							</g>
						</g>
					</g>
				</g>
			</g>
		</g>
	</g>
	<polyline fill="#EDC156" points="230.987,104.32 240.965,124.633 229.562,113.763 	"/>
	<path fill="#FFFFFF" d="M233.628,43.607c-4.684,0.214-92.216,6.717-121.106,92.52"/>
	<path fill="#D3843D" d="M318.563,592.91l-0.096-0.101l23.755,87.391l52.451-14.254l-23.763-87.417L318.563,592.91z"/>
	<g>
		<g>
			<g enable-background="new    ">
				<defs>
					<polygon id="SVGID_5_" enable-background="new    " points="85.376,725.725 90.721,87.458 589.507,185.354 584.162,823.621 
											"/>
				</defs>
				<clipPath id="SVGID_6_">
					<use xlink:href="#SVGID_5_"  overflow="visible"/>
				</clipPath>
				<g clip-path="url(#SVGID_6_)">
					<g>
						<g>
							<g>
								<path fill="#7B60F1" d="M277.859,613.476l0.876-104.671l74.9,14.7c26.018,5.106,38.897,24.968,38.607,59.567
									c-0.294,35.185-13.988,50.107-41.081,44.79L277.859,613.476 M279.982,359.876l0.798-95.31l60.555,11.885
									c23.37,4.587,34.926,22.768,34.66,54.531c-0.266,31.782-12.625,45.26-37.054,40.465L279.982,359.876 M400.673,148.292
									L90.721,87.458l-5.345,638.267l343.415,67.401c53.11,10.425,92.416,2.658,117.91-23.318
									c25.486-25.969,38.451-64.482,38.879-115.544c0.822-98.146-37.229-161.873-114.12-191.17l0.05-5.96
									c26.622-2.723,47.734-14.931,63.352-36.579c15.61-21.66,23.612-55.465,23.997-101.411
									c0.38-45.389-11.557-82.406-35.786-111.022C498.835,179.496,458.035,159.55,400.673,148.292"/>
							</g>
						</g>
					</g>
				</g>
			</g>
		</g>
	</g>
	<g>
		<g>
			<g enable-background="new    ">
				<defs>
					<polygon id="SVGID_7_" enable-background="new    " points="146.488,273.176 147.951,98.477 234.95,115.552 233.487,290.251 
											"/>
				</defs>
				<clipPath id="SVGID_8_">
					<use xlink:href="#SVGID_7_"  overflow="visible"/>
				</clipPath>
				<g clip-path="url(#SVGID_8_)">
					<g>
						<g>
							<g>
								<polyline fill="#683EC9" points="234.95,115.552 147.951,98.477 146.488,273.176 190.287,233.646 233.487,290.251 
									234.95,115.552 								"/>
							</g>
						</g>
					</g>
				</g>
			</g>
		</g>
	</g>
	<g>
		<g>
			<g enable-background="new    ">
				<defs>
					<polygon id="SVGID_9_" enable-background="new    " points="142.178,270.043 143.711,86.877 230.71,103.952 229.177,287.118 
											"/>
				</defs>
				<clipPath id="SVGID_10_">
					<use xlink:href="#SVGID_9_"  overflow="visible"/>
				</clipPath>
				<g clip-path="url(#SVGID_10_)">
					<g>
						<g>
							<g>
								<polyline fill="#FFDC7C" points="230.71,103.952 143.711,86.877 142.178,270.043 185.975,230.758 229.177,287.118 
									230.71,103.952 								"/>
							</g>
						</g>
					</g>
				</g>
			</g>
		</g>
	</g>
	<g>
		<g>
			<g enable-background="new    ">
				<defs>
					<polygon id="SVGID_11_" enable-background="new    " points="151.627,130.492 150.283,107.275 222.187,116.273 223.531,139.49 
											"/>
				</defs>
				<clipPath id="SVGID_12_">
					<use xlink:href="#SVGID_11_"  overflow="visible"/>
				</clipPath>
				<g clip-path="url(#SVGID_12_)">
					<g>
						<g>
							<g>
								<path fill="#E2AF3B" d="M157.577,108.188c-1.107-0.139-2.053-0.126-2.837,0.043c-0.997,0.217-1.79,0.665-2.372,1.361
									c-0.582,0.696-0.983,1.62-1.205,2.78c-0.214,1.152-0.324,2.531-0.314,4.13c0.012,1.65,0.133,3.092,0.388,4.346
									c0.247,1.252,0.673,2.331,1.279,3.227c0.598,0.895,1.415,1.638,2.442,2.22c1.027,0.573,2.319,1.016,3.885,1.315
									c0.328,0.061,0.646,0.111,0.952,0.15c1.244,0.155,2.316,0.122,3.214-0.116l-0.419-5.017
									c-0.959,0.198-2.007,0.229-3.149,0.085c-0.268-0.033-0.542-0.077-0.821-0.129c-0.361-0.071-0.722-0.159-1.063-0.27
									c-0.348-0.104-0.688-0.231-1.023-0.376l-0.043-7.687c-0.003-0.581,0.18-0.943,0.545-1.068c0.268-0.092,0.69-0.1,1.273-0.027
									c0.211,0.027,0.443,0.063,0.697,0.111c0.928,0.176,1.973,0.521,3.147,1.018l0.765-4.348
									c-0.221-0.156-0.511-0.312-0.87-0.476c-0.358-0.156-0.738-0.306-1.142-0.45c-0.402-0.136-0.812-0.272-1.229-0.393
									c-0.417-0.121-0.794-0.21-1.131-0.278C158.211,108.278,157.887,108.227,157.577,108.188"/>
								<path fill="#E2AF3B" d="M171.231,125.682c-0.138-0.017-0.288-0.042-0.449-0.072l-0.805-0.152l-0.037-5.746
									c-0.001-0.539,0.14-0.854,0.423-0.947c0.212-0.069,0.526-0.079,0.941-0.026c0.139,0.017,0.289,0.042,0.45,0.072l0.813,0.153
									l0.029,5.745c0.008,0.539-0.132,0.854-0.423,0.946C171.961,125.725,171.647,125.734,171.231,125.682 M170.382,114.295
									c-2.021-0.253-3.513,0.092-4.474,1.041c-1.091,1.068-1.629,2.915-1.621,5.539c0.019,2.676,0.593,4.748,1.726,6.222
									c1.131,1.466,2.902,2.431,5.296,2.893c0.292,0.056,0.575,0.101,0.848,0.135c2.026,0.253,3.517-0.091,4.479-1.032
									c1.091-1.077,1.629-2.923,1.613-5.548c-0.015-2.625-0.574-4.686-1.677-6.173s-2.882-2.471-5.344-2.941
									C170.936,114.374,170.654,114.33,170.382,114.295"/>
								<path fill="#E2AF3B" d="M180.321,116.61l0.076,14.679l5.27,1.002l-0.054-8.927c0.004-0.325,0.043-0.567,0.132-0.735
									c0.089-0.16,0.212-0.273,0.368-0.33c0.163-0.057,0.352-0.076,0.559-0.05c0.057,0.005,0.115,0.011,0.173,0.018
									c0.16,0.02,0.326,0.049,0.5,0.083l0.368,0.072l0.056,10.268l5.271,1.01l-0.049-9.097c0.015-0.272,0.078-0.486,0.184-0.626
									c0.106-0.141,0.237-0.235,0.394-0.276c0.149-0.049,0.331-0.061,0.537-0.035s0.405,0.051,0.612,0.094l0.376,0.073
									l0.056,10.269l5.263,1.009l-0.058-11.738c-0.008-1.061-0.402-1.964-1.189-2.712c-0.786-0.739-1.893-1.253-3.313-1.525
									c-0.147-0.028-0.293-0.05-0.438-0.068c-1.213-0.151-2.309,0.033-3.282,0.56c-0.799-0.954-2.057-1.59-3.784-1.926
									c-0.157-0.03-0.312-0.054-0.463-0.072c-1.528-0.191-2.774,0.162-3.743,1.058l-1.191-1.576L180.321,116.61"/>
								<path fill="#E2AF3B" d="M202.813,120.912l0.076,14.671l5.271,1.01l-0.046-8.926c-0.004-0.334,0.042-0.576,0.124-0.736
									c0.09-0.16,0.212-0.272,0.376-0.329c0.155-0.066,0.344-0.077,0.558-0.059c0.214,0.027,0.437,0.063,0.666,0.109l0.376,0.063
									l0.056,10.277l5.263,1.009l-0.049-9.105c0.014-0.271,0.079-0.477,0.184-0.618c0.113-0.148,0.245-0.234,0.393-0.284
									c0.157-0.04,0.331-0.053,0.537-0.027c0.061,0.005,0.121,0.012,0.181,0.02c0.146,0.018,0.292,0.042,0.438,0.067l0.368,0.072
									l0.056,10.276l5.271,1.01l-0.065-11.748c-0.008-1.06-0.402-1.956-1.188-2.703c-0.787-0.748-1.885-1.252-3.305-1.524
									c-0.159-0.03-0.316-0.056-0.472-0.075c-1.2-0.15-2.285,0.036-3.256,0.557c-0.791-0.945-2.057-1.59-3.783-1.917
									c-0.16-0.03-0.315-0.055-0.469-0.074c-1.525-0.191-2.769,0.155-3.73,1.052l-1.199-1.568L202.813,120.912"/>
							</g>
						</g>
					</g>
				</g>
			</g>
		</g>
	</g>
	<path fill="#7B60F1" d="M221.257,3.066c0,0-90.44,18.72-129.942,84.207"/>
	<g>
		<path fill="none" stroke="#000000" stroke-miterlimit="10" d="M374.293,591.872"/>
		<path fill="#D3843D" d="M344.642,523.086l4.347-13.698l-17.737-7.696l-17.483,4.754l-11.402,15.615l9.848,8.635L344.642,523.086z"
			/>
		<path fill="#AD6327" d="M281.688,549.585l-2.377-8.739l13.523-19.325l5.828-1.583l13.79,7.896l30.765-8.361l7.896-13.791
			l5.828-1.584l21.442,9.818l2.375,8.741L281.688,549.585z"/>
		<path fill="#D3843D" d="M376.201,560.308l5.064-12.757l-1.58-5.826l5.034-4.499l-3.963-14.569l-16.945-4.781l-7.888,11.53
			l-49.402,13.43l-12.641-5.951l-12.192,12.701l3.958,14.568l6.621,1.333l1.584,5.824l10.825,8.437L376.201,560.308L376.201,560.308
			z"/>
		<g>
			<path fill="#F9BB4B" d="M365.369,558.13l-5.545-20.396c-3.937-14.482-18.869-23.034-33.353-19.097
				c-14.483,3.938-23.034,18.87-19.098,33.354l5.545,20.396l-10.072,8.996c-1.75,1.73-2.277,4.35-1.33,6.622l0.793,2.912
				c0.874,3.22,4.194,5.119,7.411,4.245c3.879-0.98,7.968,0.424,10.429,3.576c5.751,7.001,18.622,10.432,30.082,7.316
				c11.549-3.139,20.97-12.734,22.27-21.748c0.487-3.848,3.221-7.035,6.952-8.097l0.167-0.048c3.222-0.854,5.144-4.161,4.289-7.388
				c-0.005-0.012-0.008-0.022-0.01-0.03l-0.792-2.916c-0.334-2.441-2.112-4.431-4.499-5.036L365.369,558.13z"/>
			<path fill="#F9BB4B" d="M292.833,521.521l-13.574-3.888c-4.964-1.26-13.498,1.478-17.483,4.753l-8.029,5
				c-1.271,1.075-1.428,2.98-0.349,4.254c0.457,0.537,1.087,0.901,1.783,1.021l16.715,3.938L292.833,521.521z"/>
			<path fill="#F9BB4B" d="M356.939,504.097l9.736-10.226c3.643-3.6,12.39-5.558,17.485-4.753l9.453,0.247
				c1.641,0.298,2.731,1.866,2.438,3.507c-0.125,0.684-0.479,1.307-1.004,1.759l-12.419,11.873L356.939,504.097z"/>
		</g>
		<circle fill="#143441" cx="299.693" cy="552.513" r="4.529"/>
		<path fill="#143441" d="M365.524,529.926c2.414-0.655,4.903,0.77,5.558,3.183c0.659,2.415-0.769,4.904-3.181,5.558
			c-2.412,0.659-4.902-0.768-5.559-3.181C361.686,533.071,363.11,530.58,365.524,529.926z"/>
		<path fill="#DA1C4B" d="M348.931,578.243c-3.218,0.876-6.535-1.024-7.412-4.241c0.877,3.217-1.025,6.538-4.244,7.411l-2.605,0.709
			c0.064,1.01,0.226,2.016,0.484,2.997c1.75,6.437,7.081,10.593,11.91,9.277c4.829-1.31,7.323-7.595,5.573-14.029
			c-0.275-0.979-0.644-1.925-1.101-2.83L348.931,578.243z"/>
		<path fill="#301A12" d="M348.14,575.331c-1.61,0.438-3.269-0.513-3.707-2.122l-2.98-10.969l2.151-10.711l2.568-0.697
			c0.806-0.219,1.634,0.255,1.854,1.063c0.22,0.803-0.256,1.633-1.062,1.852l-1.456,0.396l1.583,5.828l1.457-0.395
			c4.023-1.095,6.398-5.245,5.305-9.266c-1.093-4.023-5.241-6.397-9.265-5.306l-6.171,1.678l-1.838,9.148l-6.217-6.958l-6.171,1.678
			c-4.024,1.093-6.397,5.241-5.305,9.263c1.094,4.023,5.242,6.399,9.266,5.307l1.458-0.396l-1.585-5.826l-1.457,0.394
			c-0.803,0.218-1.633-0.256-1.853-1.061s0.256-1.635,1.06-1.854l2.571-0.698l7.277,8.147l2.982,10.967
			c0.438,1.611-0.512,3.271-2.124,3.707l-14.569,3.961l1.584,5.83l14.57-3.964c2.155-0.594,4.012-1.97,5.21-3.856
			c1.988,1.021,4.286,1.268,6.446,0.689l14.567-3.96l-1.583-5.83L348.14,575.331L348.14,575.331z"/>
	</g>
</g>
</svg>
